<svg xmlns="http://www.w3.org/2000/svg" xmlns:xlink="http://www.w3.org/1999/xlink" width="78.208" height="63.689" viewBox="0 0 78.208 63.689"><defs><style>.a{fill:none;}.b{clip-path:url(#a);}.c{fill:#f4f2ef;}.d{clip-path:url(#b);}.e{clip-path:url(#c);}.f{clip-path:url(#d);}.g{clip-path:url(#e);}.h{clip-path:url(#f);}.i{clip-path:url(#g);}.j{clip-path:url(#h);}.k{clip-path:url(#i);}.l{clip-path:url(#j);}.m{clip-path:url(#k);}.n{clip-path:url(#l);}.o{clip-path:url(#m);}.p{clip-path:url(#n);}.q{clip-path:url(#o);}</style><clipPath id="a"><path class="a" d="M212.125,145.846c6.422-3.361,10.109-2.709,10.109-2.709.319-.325.978-.947.978-.947a24.428,24.428,0,0,0-10.6.009,27.963,27.963,0,0,1-9.718.292c-9.067-1.317-9.82-7.261-9.82-7.261-2.6,17.834,12.628,13.971,19.05,10.61" transform="translate(-192.781 -135.23)"/></clipPath><clipPath id="b"><path class="a" d="M179.4,180.788s-2.444,10.274,6.057,11.438a24.776,24.776,0,0,0,17.871-4.515c2.558-2.032,3.951-3.2,4.853-3.913a22.459,22.459,0,0,1,1.768-1.43l-.023-.015a24.341,24.341,0,0,0-9.424,2.932c-6.033,3.094-19.157,6.578-20.99-4.534Z" transform="translate(-179.076 -180.75)"/></clipPath><clipPath id="c"><path class="a" d="M303.1,90.212c1.758,4.778,7.665,5.255,9.019,5.368s3.374.024,4.938,1.174a5.117,5.117,0,0,1,1.433-.9s-1.689-1.243-6.354-1.582c-5.239-.381-11.654-5.719-7.943-12.04,0,0-3.09,2.548-1.093,7.976" transform="translate(-302.424 -82.23)"/></clipPath><clipPath id="d"><path class="a" d="M487.927,142.565a27.852,27.852,0,0,1-9.717-.292,24.43,24.43,0,0,0-10.6-.009s.659.622.978.947c0,0,3.687-.658,10.109,2.709s21.646,7.224,19.05-10.61c0,0-.753,5.945-9.82,7.261" transform="translate(-467.61 -135.31)"/></clipPath><clipPath id="e"><path class="a" d="M487.807,185.287a24.206,24.206,0,0,0-9.424-2.932l-.023.015a22.46,22.46,0,0,1,1.768,1.43c.9.715,2.3,1.881,4.853,3.913a24.759,24.759,0,0,0,17.871,4.515c8.5-1.166,6.057-11.438,6.057-11.438l-.113-.041c-1.835,11.113-14.958,7.629-20.991,4.537" transform="translate(-478.36 -180.75)"/></clipPath><clipPath id="f"><path class="a" d="M423.037,172.295c2.634,3.124,3.236,3.99,3.16,7.6a21.727,21.727,0,0,0,2.142-8.166c.531,1.069,1.249,2.458,2.223,4.253,3.236,5.97,6.44,8.545,15.8,6,0,0-5.97-.184-11.438-6.1-3.507-3.8-5.537-6.074-6.96-7.453a8.351,8.351,0,0,0-.48-1.278c2.006,1.806,5.157,5.245,6.486,6.461,7.469,6.831,11.174,8.353,19.978,8.383s8.39-9.7,8.39-9.7c-.451,1.628-3.6,5.054-6.119,5.695-3.719.948-13.049.891-20.568-5.549-6.565-5.623-9.159-7.093-9.552-7.3A9.167,9.167,0,0,0,422.81,163s-2.408,6.17.226,9.292" transform="translate(-421.803 -163)"/></clipPath><clipPath id="g"><path class="a" d="M459.8,94.308c-4.665.339-6.354,1.582-6.354,1.582a5.117,5.117,0,0,1,1.433.9c1.564-1.15,3.583-1.061,4.938-1.174s7.257-.6,9.019-5.373c2-5.428-1.093-7.976-1.093-7.976,3.711,6.321-2.709,11.657-7.943,12.04" transform="translate(-453.45 -82.27)"/></clipPath><clipPath id="h"><path class="a" d="M406.1,118.514c1.053-3.932,6.547-2.634,6.547-2.634.321-.226,1.374-.81,1.374-.81a15.757,15.757,0,0,0-2.873-.3c-5.287,0-5.048,3.74-5.048,3.74" transform="translate(-406.099 -114.77)"/></clipPath><clipPath id="i"><path class="a" d="M457.661,123.735a2.532,2.532,0,0,0,2.352.9,3.433,3.433,0,0,0,2.012-1.279c.4-.673.208-.883-1.279-.959h-.178c-1.457,0-3.215.852-2.908,1.339" transform="translate(-457.626 -122.4)"/></clipPath><clipPath id="j"><path class="a" d="M187.93,296.4c-2.275,1.3-4.139,5.719-4.327,8.521s-.15,5.475,3.311,5.531c.444.008.879,0,1.3,0,2.85-.021,5.016-.041,4.852,3.141-.188,3.65-.978,6.038-2.208,7.618s-3.374,2.671-4.578,2.069a1.342,1.342,0,0,1-.572-.623l-.032-.1a4.045,4.045,0,0,1-.116-.551,4.163,4.163,0,0,1-.036-.573c0-.415.033-.859.075-1.3.083-.9.2-1.806.3-2.735.047-.462.086-.93.105-1.406a6.686,6.686,0,0,0-.074-1.467,1.655,1.655,0,0,0-.349-.8.831.831,0,0,0-.33-.23l-.063-.023-.056-.014a1.171,1.171,0,0,0-.451-.018,1.791,1.791,0,0,0-.734.309,3.783,3.783,0,0,0-.554.476,7.827,7.827,0,0,0-.867,1.1,12.146,12.146,0,0,0-.7,1.192,12.3,12.3,0,0,1,.846-1.079,7.5,7.5,0,0,1,.969-.939,3.173,3.173,0,0,1,.542-.352,1.27,1.27,0,0,1,.548-.15.57.57,0,0,1,.23.044.209.209,0,0,1,.116.1,1.053,1.053,0,0,1,.114.48,5.986,5.986,0,0,1-.11,1.275c-.077.436-.173.876-.278,1.317-.209.882-.451,1.767-.659,2.68-.092.4-.178.807-.244,1.236-.313,1.621.059,4.727,2.617,5.449s6.069-.778,7.85-3.988,2.182-9.081,1.255-11.162-3.311-2.683-6.522-2.307-4.653-.367-4.352-3.829,2.483-7.826,5.343-7.675,1.956,4.327.808,7.675h4.063a8.252,8.252,0,0,0-.263-6.3,5.088,5.088,0,0,0-4.5-3.213,4.578,4.578,0,0,0-2.269.617" transform="translate(-181.83 -295.78)"/></clipPath><clipPath id="k"><path class="a" d="M293.97,351.723c-.489-1.711,0-5.925,0-5.925s.622-7,2.354-7,2.05,5.267,1.41,8.9-1.6,4.7-2.163,5.1a1.276,1.276,0,0,1-.653.286h0c-.331,0-.649-.318-.947-1.354m-1.076-5.958s-.328,5.48.584,7.6c.765,1.78,2.408,1.6,3.511,1.112s2.742-1.887,3.75-6.405c1-4.489-.406-11.111-3.791-11.111s-4.054,8.8-4.054,8.8" transform="translate(-292.838 -336.97)"/></clipPath><clipPath id="l"><path class="a" d="M361.452,338.14,360,355.807h1.3l.724-11.578s.355-3.913,2.638-4.689,1.454,3.21,1.153,4.188-3.109,9.14-1.932,12.079h2.586a20.693,20.693,0,0,1,.752-6.635c1-3.437,2.157-6.823,1.3-9.281s-4.7-2.536-6.31,1.3l.191-3.054Z" transform="translate(-360 -338.14)"/></clipPath><clipPath id="m"><path class="a" d="M561.653,341.574l.208-3.461h-1.053l-1.317,17.649h1.317l.765-12.824a12.383,12.383,0,0,1,2.151-2.772c1.43-1.261,2.47-.635,2.8.226.614,1.586,0,5.185-1.6,5.624a1.149,1.149,0,0,1-1.6-1.053c.018,1.731.846,2.239,2.5,2.107s3.123-2.859,3.368-3.856.753-4.665-2.446-5.1a3.731,3.731,0,0,0-.5-.033c-2.9,0-4.6,3.5-4.6,3.5" transform="translate(-559.49 -338.08)"/></clipPath><clipPath id="n"><path class="a" d="M215.959,114a14.165,14.165,0,0,0-8.428,9.18c-.808.471-3.51,2.191-9.331,7.18-7.525,6.44-16.856,6.5-20.568,5.549-2.519-.641-5.668-4.063-6.119-5.695,0,0-.414,9.73,8.39,9.7s12.509-1.552,19.978-8.383c1.538-1.407,5.52-5.8,7.338-7.176-.074.321-.135.646-.19.977-1.482,1.157-3.541,3.535-8.109,8.471-5.468,5.921-11.438,6.1-11.438,6.1,9.356,2.542,11.689-.334,14.925-6.3,2.8-5.167,4.154-6.762,4.467-7.1-.026.281-.048.564-.06.853-.3,6.822,3.94,7.117,4.179,11.483a94.771,94.771,0,0,1-.2,10.113l-1.317,15.992h1.3l.722-11.578s.357-3.913,2.638-4.689,1.455,3.21,1.154,4.188c-.277.9-2.668,7.851-2.143,11.26l.2,1.138c.09.378.193.752.29,1.13l.187.561.095.28.048.138.057.138a10.586,10.586,0,0,0,.5,1.09,7.659,7.659,0,0,0,1.439,1.982,6.02,6.02,0,0,0,2.047,1.354,6.521,6.521,0,0,0,2.318.424,9.147,9.147,0,0,0,2.247-.274,12.771,12.771,0,0,0,2.081-.718,13.854,13.854,0,0,0,1.916-1.016,13.717,13.717,0,0,1-2.03.68,12.459,12.459,0,0,1-2.08.36,8.316,8.316,0,0,1-2.044-.074,5.276,5.276,0,0,1-1.815-.649,4.449,4.449,0,0,1-1.341-1.248,5.8,5.8,0,0,1-.826-1.664,8.786,8.786,0,0,1-.253-.924l-.029-.116-.02-.122-.039-.241-.08-.482c-.026-.313-.057-.623-.081-.933h0s0-.059-.011-.166l-.017-.593a20.957,20.957,0,0,1,.78-5.877c1-3.437,2.157-6.823,1.3-9.281s-4.7-2.536-6.312,1.3l.166-2.641c.15-2.282.47-5.719.8-7.492.527-2.784.1-4.941-2.257-8.076s-1.857-6.906-1.455-8.834,2.512-6.938,6.274-8.482,5.881.048,6.264.494a2.845,2.845,0,0,0-2.944-1.833,7.565,7.565,0,0,0-2.587.534" transform="translate(-171.51 -113.47)"/></clipPath><clipPath id="o"><path class="a" d="M493.332,351.732c-.489-1.711,0-5.925,0-5.925s.62-7.006,2.351-7.006,2.051,5.267,1.41,8.9-1.6,4.7-2.163,5.1a1.277,1.277,0,0,1-.652.286h0c-.33,0-.649-.318-.945-1.354m-1.078-5.958s-.328,5.48.584,7.6c.766,1.78,2.408,1.6,3.511,1.112a2.86,2.86,0,0,0,.632-.426.036.036,0,0,1,0,.012,14.765,14.765,0,0,0,.816,3.631,8.41,8.41,0,0,0,1.213,2.2A6.125,6.125,0,0,0,501,361.586a6.6,6.6,0,0,0,2.427.7,9.923,9.923,0,0,0,2.388-.074,17.581,17.581,0,0,0,2.242-.486,13.653,13.653,0,0,0,2.158-.807c1.376-.638,2.631-1.427,3.913-2.107a10.292,10.292,0,0,1,1.956-.849,3.523,3.523,0,0,1,1.014-.15,2.006,2.006,0,0,1,.956.235,1.136,1.136,0,0,1,.548.765,2.611,2.611,0,0,1-.017,1.053,7.145,7.145,0,0,1-.786,2.035,7.291,7.291,0,0,0,.968-1.991,2.834,2.834,0,0,0,.11-1.141,1.528,1.528,0,0,0-.2-.573,1.442,1.442,0,0,0-.424-.451,2.434,2.434,0,0,0-1.133-.385,4.064,4.064,0,0,0-1.171.071,10.938,10.938,0,0,0-2.154.719c-1.368.593-2.673,1.263-4.015,1.75a12.6,12.6,0,0,1-2.024.557,16.489,16.489,0,0,1-2.1.278,8.366,8.366,0,0,1-2.009-.1,4.847,4.847,0,0,1-1.738-.658A5.024,5.024,0,0,1,499.9,357a14.068,14.068,0,0,1-.429-4.017,50.328,50.328,0,0,1,.722-5.344c.8-4.4-.564-10.474-3.732-10.658h-.15c-3.385,0-4.056,8.8-4.056,8.8" transform="translate(-492.198 -336.98)"/></clipPath></defs><g transform="translate(-6.52 0.04)"><g class="b" transform="translate(9.721 7.936)"><rect class="c" width="32.733" height="17.834" transform="translate(-2.301 0.006)"/></g><g class="d" transform="translate(7.658 14.787)"><rect class="c" width="32.996" height="12.645" transform="translate(-2.12)"/></g><g class="e" transform="translate(26.222 -0.04)"><rect class="c" width="18.01" height="14.518" transform="translate(-1.947 0.006)"/></g><g class="f" transform="translate(51.081 7.948)"><rect class="c" width="32.733" height="17.834" transform="translate(0.002 -0.006)"/></g><g class="g" transform="translate(52.699 14.787)"><rect class="c" width="32.996" height="12.645" transform="translate(0.002 0)"/></g><g class="h" transform="translate(44.188 12.116)"><rect class="c" width="42.346" height="21.525" transform="translate(-1.402 0.003)"/></g><g class="i" transform="translate(48.95 -0.034)"><rect class="c" width="18.01" height="14.518" transform="translate(0 0)"/></g><g class="j" transform="translate(41.824 4.857)"><rect class="c" width="8.16" height="3.932" transform="translate(-0.238 -0.188)"/></g><g class="k" transform="translate(49.579 6.005)"><rect class="c" width="5.073" height="2.412" transform="translate(-0.272 -0.005)"/></g><g class="l" transform="translate(8.073 32.098)"><rect class="c" width="14.723" height="31.526" transform="translate(-0.002 0.002)"/></g><g class="m" transform="translate(24.779 38.297)"><rect class="c" width="9.174" height="18.184" transform="translate(-0.272 -0.005)"/></g><g class="n" transform="translate(34.887 38.473)"><rect class="c" width="9.38" height="18.452" transform="translate(-0.002 -0.786)"/></g><g class="o" transform="translate(64.909 38.464)"><rect class="c" width="10.459" height="17.682" transform="translate(0 -0.008)"/></g><g class="p" transform="translate(6.52 4.661)"><rect class="c" width="55.495" height="59.109" transform="translate(-0.417 -0.206)"/></g><g class="q" transform="translate(54.782 38.299)"><rect class="c" width="27.006" height="25.396" transform="translate(-0.272 -0.006)"/></g></g></svg>