<svg xmlns="http://www.w3.org/2000/svg" width="17.455" height="17.331" viewBox="0 0 17.455 17.331"><defs><style>.a{fill:#312f64;}</style></defs><g transform="translate(-0.109 0)"><path class="a" d="M12.27,10.284a6.407,6.407,0,0,0-1.6-9.085A6.813,6.813,0,0,0,1.341,2.752a6.407,6.407,0,0,0,1.6,9.085,6.848,6.848,0,0,0,7.274.293l4.936,4.777a1.428,1.428,0,0,0,1.981.049,1.338,1.338,0,0,0,.051-1.928c-.017-.017-.033-.033-.051-.05ZM6.8,10.729a4.262,4.262,0,0,1-4.32-4.2A4.262,4.262,0,0,1,6.8,2.323a4.262,4.262,0,0,1,4.319,4.2A4.262,4.262,0,0,1,6.8,10.729Zm0,0" transform="translate(0 0)"/></g></svg>