<svg xmlns="http://www.w3.org/2000/svg" width="368.31" height="415.108" viewBox="0 0 368.31 415.108"><defs><style>.a{fill:#d8e8e4;}.b{fill:#f1c550;}.c{fill:#f0bf41;}.d{fill:#f0d286;}.e{fill:#d17a3d;}.f{fill:#d97f3f;}.g{fill:#ffd461;}.h{fill:#db894f;}.ac,.am,.ao,.i,.q,.s{fill:none;}.i{stroke:#d17a3d;}.ac,.am,.ao,.i,.s{stroke-linecap:round;stroke-linejoin:round;}.am,.ao,.i,.q,.s{stroke-width:0.952px;}.j{fill:#4d2000;}.k{fill:#692b00;}.l{fill:#b5f0ff;}.m{fill:#96e1f5;}.n{fill:#e3945d;}.o{fill:#3dbcea;}.p{fill:#133c6b;}.q{stroke:#0f2f54;stroke-miterlimit:10;}.r{fill:#174b87;}.s{stroke:#133d6e;}.t{fill:#fab66e;}.u{fill:#ffbe78;}.v{fill:#ea4c4c;}.w{fill:#ea5757;}.x{fill:#ffb15e;}.y{fill:#05937e;}.z{fill:#00806c;}.aa{fill:#ffc485;}.ab{fill:#06ab93;}.ac{stroke:#faac5a;stroke-width:0.808px;}.ad{fill:#faac5a;}.ae{fill:#f26e18;}.af{fill:#ff8433;}.ag{fill:#2660a4;}.ah{fill:#2b6bb8;}.ai{fill:#261000;}.aj{fill:#3d1900;}.ak{fill:#003b31;}.al{fill:#006656;}.am{stroke:#005446;}.an{fill:#007866;}.ao{stroke:#006355;}.ap{fill:#8ec424;}.aq{fill:#9ad12c;}.ar{fill:#8dc225;}</style></defs><g transform="translate(-65.845 -46.491)"><ellipse class="a" cx="184.155" cy="7.699" rx="184.155" ry="7.699" transform="translate(65.845 446.201)"/><path class="b" d="M336.939,239.528H340.6L410.458,453.9H406.8Z"/><path class="c" d="M333.469,272.6l.5.933,1.47,2.731h16.242l-1.789-3.331-.181-.333Z"/><path class="d" d="M333.469,272.6l.5.933a42.176,42.176,0,0,0,6.859.5c4.207,0,7.785-.457,9.064-1.1l-.182-.333Z"/><path class="c" d="M325.855,247.146l.486.933,1.428,2.731h15.775l-1.738-3.331-.176-.333Z"/><path class="d" d="M325.855,247.146l.486.933a39.815,39.815,0,0,0,6.662.5c4.086,0,7.562-.457,8.8-1.1l-.176-.333Z"/><path class="c" d="M342.575,299.157l.479.933,1.407,2.731H360l-1.712-3.331-.173-.333Z"/><path class="d" d="M342.575,299.157l.479.933a38.681,38.681,0,0,0,6.564.494c4.026,0,7.451-.456,8.674-1.094l-.173-.333Z"/><path class="c" d="M351.194,325.714l.476.933,1.4,2.731H368.5l-1.7-3.331-.172-.333Z"/><path class="d" d="M351.194,325.714l.476.932a38.019,38.019,0,0,0,6.517.495c4,0,7.4-.457,8.612-1.094l-.172-.333Z"/><path class="c" d="M359.76,352.27l.487.933,1.43,2.731h15.8l-1.741-3.331-.176-.333Z"/><path class="d" d="M359.76,352.27l.487.933a39.929,39.929,0,0,0,6.672.495c4.093,0,7.574-.457,8.818-1.1l-.176-.333Z"/><path class="c" d="M368.563,378.827l.5.933,1.456,2.731h16.093l-1.773-3.331-.179-.333Z"/><path class="d" d="M368.563,378.827l.5.933a41.434,41.434,0,0,0,6.8.494c4.168,0,7.714-.456,8.98-1.094l-.179-.333Z"/><path class="c" d="M377.366,405.384l.491.933,1.443,2.731h15.941l-1.756-3.331-.178-.333Z"/><path class="d" d="M377.366,405.384l.492.932a40.522,40.522,0,0,0,6.731.495c4.129,0,7.642-.457,8.9-1.094l-.178-.333Z"/><path class="c" d="M385.456,431.94l.493.933,1.446,2.731h15.984l-1.761-3.331-.178-.333Z"/><path class="d" d="M385.456,431.94l.492.933a40.861,40.861,0,0,0,6.75.5c4.14,0,7.662-.457,8.919-1.1l-.178-.333Z"/><path class="b" d="M320.462,239.528h3.661L393.981,453.9H390.32Z"/><path class="b" d="M318.661,239.528H315l.464,214.372h3.661Z"/><path class="b" d="M304.3,239.528h-3.661L301.1,453.9h3.661Z"/><rect class="b" width="39.655" height="3.252" transform="translate(300.635 239.528)"/><path class="e" d="M322.375,149.005c-18.76.069-30.333-17.558-31.479-25.222a4.012,4.012,0,0,1-1.438-.2c-1.549-.567-2.615-2.022-4.13-2.666-.7-.3-1.5-.42-2.216-.682a.87.87,0,0,1-.025-1.6,9.283,9.283,0,0,1,3.559-.506c-1.05-.877-2.658-1.073-3.617-1.942a.756.756,0,0,1,.276-1.292,3.4,3.4,0,0,1,1.31-.048c1.312.16,2.612.325,3.911.49-.625-.493-1.242-.982-1.868-1.475-.5-.384-1.02-1.061-.631-1.545.341-.422,1.013-.2,1.49.062,1.232.676,2.449,1.408,3.629,2.175a1.97,1.97,0,0,0,.664.334,1.537,1.537,0,0,0,1.332-.549c.349-.366.612-.8.974-1.152a1.36,1.36,0,0,1,.626-.359,1.184,1.184,0,0,1,1.168.534,2.584,2.584,0,0,1,.384,1.28,11.975,11.975,0,0,1-.706,4.638,40.173,40.173,0,0,0,1.944,4.1c7.322,13.317,20.034,16.892,25.484,17.83a3.8,3.8,0,0,1,.891.267,3.934,3.934,0,0,1-1.532,7.538Z"/><path class="f" d="M323.907,141.467c-2.5,1.283-7.551,2.64-15.841-.376-10.981-3.99-10.779-14.939-10.534-17.721,7.322,13.317,20.034,16.892,25.484,17.83A3.8,3.8,0,0,1,323.907,141.467Z"/><path class="b" d="M310.856,69.049,291.622,182.588a2.863,2.863,0,0,1-3.292,2.341l-32.539-5.51a2.838,2.838,0,0,1-2.37-2.931,21.891,21.891,0,0,0-42.884-7.272,2.825,2.825,0,0,1-3.207,1.99L174.791,165.7a2.859,2.859,0,0,1-2.341-3.293l7.9-46.633,11.335-66.9a2.846,2.846,0,0,1,3.293-2.332l98.216,16.626,15.322,2.6A2.868,2.868,0,0,1,310.856,69.049Z"/><path class="g" d="M294.173,74.369a64.442,64.442,0,0,1-113.824,41.4l11.335-66.9a2.846,2.846,0,0,1,3.293-2.332l98.216,16.626A63.985,63.985,0,0,1,294.173,74.369Z"/><path class="h" d="M341.2,129.548c2.778-5.492,1.512-12.108-3.283-15.543-5.341-3.826-13.021-2.252-17.153,3.516s-4.189,13.194,1.152,17.02a11.661,11.661,0,0,0,4.06,1.816l-1.147,7.866,7.534,1.1,1.361-9.333a13.677,13.677,0,0,0,2.578-1.166c3.149,1.287,7.9-.227,7.716-3.037C343.9,130.015,342.408,129.6,341.2,129.548Z"/><path class="e" d="M325.975,136.368s2.063.987,5.67,0c0,0-.677,2.987-6.049,2.594Z"/><path class="i" d="M342.219,130.77a2.089,2.089,0,0,0-1.553.036,5.471,5.471,0,0,0-1.359.69.864.864,0,0,1,.834.006,1.338,1.338,0,0,1,.566.64,1.324,1.324,0,0,1,.076.987,1.967,1.967,0,0,1-1.446.987"/><path class="j" d="M347.5,121.612v.01a8.217,8.217,0,0,1-.942,3.093,22.625,22.625,0,0,1-2.608,4.111c-.314.4-.647.79-.98,1.161a10.165,10.165,0,0,0-1.751-.438,16.146,16.146,0,0,0-4.016,1.085c-.876-.076-1.3-.932-1.456-2.122-.3-2.436.494-6.31.9-8.061h.009c.124-.571.219-.914.219-.914a10.782,10.782,0,0,1-13.562-2.464c-3.645,1.589-5.348,6.985-5.348,6.985a3.987,3.987,0,0,1-1.3-2.1,10.1,10.1,0,0,1,.038-2.456,14.1,14.1,0,0,1,1.523-5.282.009.009,0,0,0,.009-.009c-.086-.124-.181-.248-.266-.381s-.172-.266-.257-.409a6.125,6.125,0,0,1-.809-1.666v-.009a3.556,3.556,0,0,1-.115-.895c.01-1.646,1.371-2.979,2.884-3.673.1-.038.2-.086.295-.124a8.861,8.861,0,0,1,7.68.581,2.04,2.04,0,0,1,.533.456,1.715,1.715,0,0,1,.134-1.018,3.4,3.4,0,0,1,1.085-1.247,7.781,7.781,0,0,1,8-.771,9.089,9.089,0,0,1,3.569,3.379,12.2,12.2,0,0,1,1.209,2.513,25.744,25.744,0,0,1,1.171,6.319c.038.447.066.885.1,1.332a2.34,2.34,0,0,1,2.951.076A3.664,3.664,0,0,1,347.5,121.612Z"/><path class="k" d="M343.348,117.263a3.151,3.151,0,0,1-.286.19,2.724,2.724,0,0,1-2.865-.028c-.523-.381-.913-.99-1.541-1.1-.7-.134-1.333.418-2.027.533a3.431,3.431,0,0,1-1.98-.448c-.78-.342-1.561-.694-2.341-1.047a3.578,3.578,0,0,0-2.2-.447c-.98.238-1.608,1.285-2.588,1.523a3.025,3.025,0,0,1-2.4-.723,7.466,7.466,0,0,0-2.188-1.352,1.22,1.22,0,0,0-.552-.038c-.581.133-.752.9-1.219,1.275a1.427,1.427,0,0,1-1.494.086,3.4,3.4,0,0,1-1.151-1.056c-.105-.134-.2-.267-.3-.41a3.281,3.281,0,0,1-.257-.39c-.1-.133-.172-.266-.257-.409a14.8,14.8,0,0,1-.809-1.666v-.009a3.556,3.556,0,0,1-.115-.895c.01-1.646,1.371-2.979,2.884-3.673a16.3,16.3,0,0,1,4.026,1.808,3.475,3.475,0,0,0,2.075.79c.894-.086,1.551-.9,2.417-1.133,1.275-.333,2.465.686,3.616,1.314a6.973,6.973,0,0,0,6.824-.162,10.575,10.575,0,0,1,2.341-1.361,12.2,12.2,0,0,1,1.209,2.513A25.744,25.744,0,0,1,343.348,117.263Z"/><path class="k" d="M347.5,121.612v.01a8.217,8.217,0,0,1-.942,3.093,22.625,22.625,0,0,1-2.608,4.111,1.526,1.526,0,0,0-.542-.333c-.533-.171-1.1.086-1.656.038-1.247-.105-2.1-1.723-3.341-1.523a3.658,3.658,0,0,0-1.475.9,3.986,3.986,0,0,1-1.189.6c-.3-2.436.494-6.31.9-8.061h.009a3.228,3.228,0,0,1,1.98.466,20.57,20.57,0,0,0,2.683,1.637,5.389,5.389,0,0,0,4.245-.542C346.165,121.7,346.926,121.336,347.5,121.612Z"/><path class="l" d="M331.169,141.661c-2.736-.278-6.141-1.753-8.351-.441-4.843,2.873-7.157,3.413-7.987,7.421-.039.187,2.043,14.827,2.043,14.827l16.149,1.376s2.576-6.9,4.525-13C339.013,147.258,335.96,142.149,331.169,141.661Z"/><path class="m" d="M337.272,149.855s-5.129,6.079-21.27,3.592c0,0,7.771,8.934,14.195,6.733S337.272,149.855,337.272,149.855Z"/><path class="h" d="M335.315,151.8c-17.15,7.6-34.832-3.883-38.963-10.44a3.986,3.986,0,0,1-1.4.39c-1.646.1-3.207-.8-4.853-.78-.762.009-1.542.219-2.3.266a.87.87,0,0,1-.667-1.456,9.308,9.308,0,0,1,3.055-1.894c-1.313-.38-2.864.086-4.092-.323a.757.757,0,0,1-.266-1.295,3.394,3.394,0,0,1,1.18-.571q1.9-.57,3.778-1.123l-2.3-.6c-.609-.152-1.361-.562-1.2-1.161.142-.524.847-.59,1.389-.543,1.4.124,2.808.305,4.2.533a1.938,1.938,0,0,0,.742.038,1.538,1.538,0,0,0,1-1.037c.171-.476.238-.98.428-1.447a1.361,1.361,0,0,1,.428-.58,1.185,1.185,0,0,1,1.285.019,2.579,2.579,0,0,1,.866,1.018,11.976,11.976,0,0,1,1.218,4.53,40.071,40.071,0,0,0,3.427,2.97c12.058,9.25,25.134,7.413,30.5,6.081a3.83,3.83,0,0,1,.923-.114,3.934,3.934,0,0,1,1.627,7.518Z"/><path class="n" d="M333.688,144.282c-1.77,2.179-5.853,5.453-14.656,6.024-11.659.761-15.875-9.346-16.769-11.991,12.058,9.25,25.134,7.413,30.5,6.081A3.83,3.83,0,0,1,333.688,144.282Z"/><path class="o" d="M318.043,234.869s1.7,3.014.3,4.659H306.98s-1.19-1.606,4.382-4.659Z"/><path class="p" d="M314.446,167.983s-10.461,25.1-5.882,46.1l2.561,20.89h7.31s.32-36.389,7.528-54.188C325.963,180.788,326.239,167.063,314.446,167.983Z"/><path class="q" d="M318.9,182.545s-7.08,17.726-1.836,51.511"/><path class="o" d="M328,234.869s1.7,3.014.3,4.659H316.933s-1.19-1.606,4.382-4.659Z"/><path class="r" d="M333.023,164.844l-16.149-1.376-.239.3a12.512,12.512,0,0,0,3.5,18.482,61.007,61.007,0,0,0-1.711,31.836l2.56,20.89h7.311s.436-32.076,6.128-50.945c.071-.23.141-.46.211-.685.155-.492.311-.982.473-1.454a3.027,3.027,0,0,0,.131-.656,11.878,11.878,0,0,0,.316-1.725A29.691,29.691,0,0,0,333.023,164.844Z"/><path class="s" d="M326.374,164.278s-2.581,11.407,5.667,11.169"/><path class="s" d="M330.852,165.216s3.251,8.327,1.586,14.038-7.159,26.251-6.474,35.609,1,19.193,1,19.193"/><path class="t" d="M145.668,265.273c13.471,11.663,32.72,6.131,38.29,1.32a3.805,3.805,0,0,0,1.163.742c1.467.552,3.135.163,4.626.637.689.22,1.34.626,2.018.88a.826.826,0,0,0,1.009-1.138,8.838,8.838,0,0,0-2.25-2.567c1.3.018,2.578.872,3.807.841a.718.718,0,0,0,.6-1.1,3.209,3.209,0,0,0-.914-.846c-1.044-.7-2.082-1.383-3.121-2.068l2.259.094c.6.03,1.392-.133,1.411-.722.016-.516-.606-.771-1.112-.879-1.305-.275-2.635-.5-3.96-.679a1.87,1.87,0,0,1-.685-.172,1.458,1.458,0,0,1-.62-1.219c-.024-.48.055-.956.012-1.433a1.3,1.3,0,0,0-.228-.646,1.128,1.128,0,0,0-1.173-.339,2.464,2.464,0,0,0-1.069.685,11.375,11.375,0,0,0-2.363,3.778,38.257,38.257,0,0,1-3.935,1.747c-13.52,5.06-24.889-.234-29.4-2.933a3.735,3.735,0,0,0-4.37,6.019Z"/><path class="u" d="M149.231,258.894c1,2.471,3.8,6.577,11.644,9.537,10.38,3.924,17.012-4.088,18.559-6.244-13.52,5.06-24.889-.234-29.4-2.933A3.7,3.7,0,0,0,149.231,258.894Z"/><path class="v" d="M288.739,200.984V313.761a4.041,4.041,0,0,1-4.045,4.045H253.925a4.013,4.013,0,0,0-3.987,3.331,21.887,21.887,0,0,1-43.265,0,4.013,4.013,0,0,0-3.987-3.331H171.917a4.041,4.041,0,0,1-4.045-4.045V200.984a4.041,4.041,0,0,1,4.045-4.044h30.769a4.013,4.013,0,0,0,3.987-3.331,21.887,21.887,0,0,1,43.265,0,4.013,4.013,0,0,0,3.987,3.331h30.769A4.041,4.041,0,0,1,288.739,200.984Z"/><path class="w" d="M288.739,200.984v94c-25.611,6.872-55.19-1.551-75.356-24-19.234-21.423-24.859-49.993-17.017-74.042h6.32a4.013,4.013,0,0,0,3.987-3.331,21.887,21.887,0,0,1,43.265,0,4.013,4.013,0,0,0,3.987,3.331h30.769A4.041,4.041,0,0,1,288.739,200.984Z"/><path class="b" d="M156.815,274.5h-3.661L89.542,453.9H93.2Z"/><path class="c" d="M160.492,299.157l-.447.933-1.313,2.731H144.218l1.6-3.331.162-.333Z"/><path class="d" d="M160.492,299.157l-.448.933a33.759,33.759,0,0,1-6.129.494c-3.759,0-6.957-.456-8.1-1.094l.162-.333Z"/><path class="c" d="M151.276,325.714l-.447.933-1.313,2.731H135l1.6-3.331.162-.333Z"/><path class="d" d="M151.276,325.714l-.448.932a33.668,33.668,0,0,1-6.129.495c-3.759,0-6.957-.457-8.1-1.094l.162-.333Z"/><path class="c" d="M141.493,352.27l-.447.933-1.313,2.731H125.219l1.6-3.331.162-.333Z"/><path class="d" d="M141.493,352.27l-.447.933a33.767,33.767,0,0,1-6.129.495c-3.759,0-6.957-.457-8.1-1.1l.162-.333Z"/><path class="c" d="M131.948,378.827l-.447.933-1.313,2.731H115.674l1.6-3.331.162-.333Z"/><path class="d" d="M131.948,378.827l-.448.933a33.77,33.77,0,0,1-6.129.494c-3.759,0-6.957-.456-8.1-1.094l.162-.333Z"/><path class="c" d="M122.978,405.384l-.447.933-1.313,2.731H106.7l1.6-3.331.162-.333Z"/><path class="d" d="M122.978,405.384l-.447.932a33.676,33.676,0,0,1-6.129.495c-3.759,0-6.957-.457-8.1-1.094l.162-.333Z"/><path class="c" d="M113.392,431.94l-.447.933-1.313,2.731H97.118l1.6-3.331.162-.333Z"/><path class="d" d="M113.392,431.94l-.448.933a33.747,33.747,0,0,1-6.129.5c-3.759,0-6.956-.457-8.1-1.1l.162-.333Z"/><path class="b" d="M170.509,274.5h-3.661L103.236,453.9H106.9Z"/><path class="u" d="M149.987,290.46a59.709,59.709,0,0,1-5.544,37.065l-8.453,19.3-6.219-2.4s9.359-30.613,6.821-49.648C136.592,294.77,138.8,286.626,149.987,290.46Z"/><path class="x" d="M141.539,321.1c-1.238,2.827-3.893,4.178-7.2,4.587.028-.142.057-.285.085-.419a7.445,7.445,0,0,0,5.1-4.168c3.189-7.309.866-22.26-.618-29.76a6.961,6.961,0,0,1,1.779-1.132C142.138,297.221,144.9,313.4,141.539,321.1Z"/><path class="y" d="M129.748,344.418s-2.538,2.355-1.7,4.35l10.827,3.442s1.621-1.17-2.764-5.768Z"/><path class="x" d="M142.606,322.85a1.565,1.565,0,0,0-.636,1.1,2.517,2.517,0,0,0-.027.59.379.379,0,0,0,.137.3.393.393,0,0,0,.58-.052.374.374,0,0,0,.092-.339c.025-.1-.277-.209-.393.034-.127-.283.323-.635.7-.386a.855.855,0,0,1,.27,1.012,1.161,1.161,0,0,1-.794.716,1.234,1.234,0,0,1-1.086-.272,1.278,1.278,0,0,1-.4-1,2.2,2.2,0,0,1,.225-.84A1.342,1.342,0,0,1,142.606,322.85Z"/><path class="u" d="M137.939,286.726s5.948,24.268,1.587,34.261-26.459,1.548-32.358-1.784l1.531-5.51s17.636.632,21.852,2.3c0,0-11.312-16.893-4.261-29.265Z"/><path class="y" d="M108.825,313.844s-2.417-2.312-4.343-1.48a.228.228,0,0,0-.127.152l-2.767,10.907s1.523.528,5.853-4.122Z"/><path class="x" d="M135.924,317.772a1.567,1.567,0,0,0-.636,1.1,2.508,2.508,0,0,0-.027.589c.022.172.057.24.137.3a.392.392,0,0,0,.58-.052.378.378,0,0,0,.093-.339c.024-.1-.278-.209-.394.034-.127-.283.323-.635.7-.385a.854.854,0,0,1,.27,1.011,1.161,1.161,0,0,1-.794.716,1.234,1.234,0,0,1-1.086-.272,1.278,1.278,0,0,1-.4-1,2.191,2.191,0,0,1,.225-.839A1.344,1.344,0,0,1,135.924,317.772Z"/><path class="u" d="M139.127,257.381c2.726.362,5.693.77,8.234,1.154,4.047.611,6.177,6.9,6.057,10.991-.005.192-.017.378-.034.556-.282,2.851-7.374,11.657-7.374,11.657l-14.041-2.58s-.91-7.307-1.395-13.69A7.576,7.576,0,0,1,139.127,257.381Z"/><path class="y" d="M146.516,281.537l-.133.2c6.233,8.289,5.805,19.053,5.215,23.8-.181,1.532-.381,2.436-.381,2.436H126c-10.392-15.075,5.32-29.189,5.32-29.189l-.387-8.987a.129.129,0,0,1,.226-.088c2.837,3.006,5.4,1.005,5.4,1.005,4.044-4.235-1.894-12.553-1.894-12.553a4.076,4.076,0,0,1,2.836-.847c3.026,3.512,8.565,7.433,8.965,6.719.381-.685-1.1-5.368-1.218-5.787-.01-.009,0-.028.019-.019l3.578.524a.032.032,0,0,1,.019.009l3.645,9.089a6.092,6.092,0,0,1-.59,5.653Z"/><path class="u" d="M131.894,267.458c14.183,12.279,34.448,6.454,40.313,1.388a3.993,3.993,0,0,0,1.224.782c1.544.581,3.3.172,4.87.671.726.231,1.411.659,2.125.927a.87.87,0,0,0,1.063-1.2,9.306,9.306,0,0,0-2.369-2.7c1.367.02,2.714.919,4.008.886a.757.757,0,0,0,.633-1.161,3.4,3.4,0,0,0-.962-.89c-1.1-.734-2.193-1.456-3.286-2.177l2.378.1c.627.032,1.465-.14,1.486-.761.016-.542-.638-.812-1.171-.924-1.374-.291-2.774-.529-4.17-.716a1.958,1.958,0,0,1-.721-.18,1.541,1.541,0,0,1-.653-1.284c-.025-.505.059-1.007.013-1.509a1.368,1.368,0,0,0-.24-.68,1.189,1.189,0,0,0-1.235-.357,2.6,2.6,0,0,0-1.125.721,11.987,11.987,0,0,0-2.488,3.978,40.108,40.108,0,0,1-4.143,1.839c-14.234,5.328-26.2-.246-30.949-3.088a3.921,3.921,0,0,0-4.425.282A3.924,3.924,0,0,0,131.894,267.458Z"/><path class="z" d="M151.084,274.742l-1.37,2.036a30.572,30.572,0,0,1-15.57-5.434,3.612,3.612,0,0,0,2.379-.609A31.454,31.454,0,0,0,151.084,274.742Z"/><path class="aa" d="M135.645,260.742c1.057,2.6,4.006,6.924,12.259,10.04,10.929,4.132,17.912-4.3,19.54-6.574-14.234,5.328-26.2-.246-30.949-3.088A3.874,3.874,0,0,0,135.645,260.742Z"/><path class="ab" d="M151.6,305.539a7.724,7.724,0,0,1-2.474-.476c-4.664-1.675-7.957-5.872-10.307-10.24a13.133,13.133,0,0,1-1.6-4.15,9.636,9.636,0,0,1,.333-4.159,7.422,7.422,0,0,1,1.941-3.436,6.868,6.868,0,0,1,4.73-1.589c.619,0,1.437.01,2.294.048l-.133.2C152.616,290.026,152.188,300.79,151.6,305.539Z"/><path class="u" d="M155.561,237.147c-2.063-6.789-8.832-10.743-15.118-8.833a11.9,11.9,0,0,0-8.181,10.5c-1.1-.576-3-1.2-4,.6-1.267,2.3,1.832,5.4,5.011,5.947a13.259,13.259,0,0,0,5.375,5.992l-1.141,6.209L145,258.935l1.025-5.576a11.284,11.284,0,0,0,2.987-.461C155.3,250.988,157.625,243.937,155.561,237.147Z"/><path class="ac" d="M129.52,239.749a2.084,2.084,0,0,1,1.518.328,5.407,5.407,0,0,1,1.205.934.867.867,0,0,0-.819-.152,1.338,1.338,0,0,0-.678.523,1.318,1.318,0,0,0-.26.954c.1.6.69.971,1.234,1.242"/><path class="ad" d="M146.023,253.359a7.009,7.009,0,0,1-5.155-1.4s1.7,3.684,4.685,3.954Z"/><path class="ae" d="M163.578,264c-5.728-.489-12.627-4.146-12.627-4.146-1.618-1.009-2.027-.923-2.027-.923l-.067-.172-3.721-.552.885-4.853c10.592-1.076,10.269-11.249,10.269-11.249a7.336,7.336,0,0,1-3.674-.933,42.663,42.663,0,0,1-7.347-4.787c-2.417-1.894-4.206-3.521-4.206-3.521a12.191,12.191,0,0,1-2.332,5.3,11.184,11.184,0,0,1-3.312,2.941s-.143-.8-3.16-2.293c0,0-2.769-1.333-3.806,1.113a1.464,1.464,0,0,0-.1.466c-.1.943.267,3.141,4.921,4.959,0,0,2.56,4.178,5.377,6l-1.1,5.986a3.917,3.917,0,0,0-2.893.828,7.807,7.807,0,0,0-4.055,7.718l.324,3.645.171,4.226c-21.289-6.453-4.939-30.169-4.939-30.169a16.457,16.457,0,0,1-.4-2.675c-.333-4.872,2.084-7.29,3.712-8.356a6.819,6.819,0,0,1,1.408-.713s8.413-11.63,22.879-1.438c.629.438,1.257.914,1.9,1.438a11.211,11.211,0,0,1,3.255,3.388c1.351,2.2,2.2,5.434.228,9.612,0,0,2.379,1.751,4.321,8.565S163.578,264,163.578,264Z"/><path class="af" d="M139.1,236.188a5.186,5.186,0,0,1-.371,1.979,11.184,11.184,0,0,1-3.312,2.941s-.143-.8-3.16-2.293c0,0-2.769-1.333-3.806,1.113a1.464,1.464,0,0,0-.1.466,3.615,3.615,0,0,1-1.855.733,1.675,1.675,0,0,1-.743-.219c-.333-4.872,2.084-7.29,3.712-8.356a2.4,2.4,0,0,0,.942.486,5.646,5.646,0,0,0,2.294-.276,1.949,1.949,0,0,1,2.093.609c.286.485.2,1.171.59,1.589.438.467,1.2.324,1.828.181s1.437-.162,1.751.4A1.334,1.334,0,0,1,139.1,236.188Z"/><path class="af" d="M158.917,235.227v.171a4.063,4.063,0,0,1-2.608,3.788c-.657.2-1.371.181-2.018.409a2.664,2.664,0,0,0-1.322,1c-.134.181-.238.391-.353.581a42.663,42.663,0,0,1-7.347-4.787c1.038-.524,2.427-.7,3.027-1.694.266-.438.361-1.009.8-1.266a1.825,1.825,0,0,1,1.133-.1,3.061,3.061,0,0,0,2.417-.543,4.58,4.58,0,0,0,1-2.084c.038-.1.076-.2.114-.3.629.438,1.257.914,1.9,1.438A11.211,11.211,0,0,1,158.917,235.227Z"/><path class="ag" d="M287.054,335.889V451.045A2.857,2.857,0,0,1,284.2,453.9H169.043a2.851,2.851,0,0,1-2.855-2.855V335.889a2.852,2.852,0,0,1,2.855-2.856h32.995a2.834,2.834,0,0,1,2.836,2.494,21.889,21.889,0,0,0,43.493,0,2.834,2.834,0,0,1,2.827-2.494H284.2A2.858,2.858,0,0,1,287.054,335.889Z"/><path class="ah" d="M277.318,346.71c0,34.546-28.675,62.536-64.04,62.536a64.621,64.621,0,0,1-47.09-20.138V335.889a2.852,2.852,0,0,1,2.855-2.856h32.995a2.834,2.834,0,0,1,2.836,2.494,21.889,21.889,0,0,0,43.493,0,2.834,2.834,0,0,1,2.827-2.494h24.583A61.15,61.15,0,0,1,277.318,346.71Z"/><path class="u" d="M327.287,346.094c3.116-.836,5.916-4.209,4.442-6.383-1.153-1.7-2.988-.906-4.035-.23a11.9,11.9,0,0,0-9.113-9.7c-6.435-1.324-12.811,3.237-14.241,10.188s1.539,13.757,7.974,15.08a11.292,11.292,0,0,0,3.017.184l1.534,5.458,7.329-2.06-1.707-6.077A13.267,13.267,0,0,0,327.287,346.094Z"/><path class="ad" d="M315.331,355.235a11.113,11.113,0,0,0,5.33-2.036,6.873,6.873,0,0,1-4.438,5.21Z"/><path class="ac" d="M331.2,340.218a2.089,2.089,0,0,0-1.553.035,5.441,5.441,0,0,0-1.359.691.865.865,0,0,1,.833.005,1.338,1.338,0,0,1,.567.641,1.322,1.322,0,0,1,.076.986,1.968,1.968,0,0,1-1.446.987"/><path class="ai" d="M331.861,344.634c-2.18,4.73-5.93,4.283-5.93,4.283l1.352-2.827c6.757-2.817,4.33-6.529,4.33-6.529-1.494-1.827-3.788-.162-3.788-.162-.228,4.283-2.741,3.293-2.741,3.293-1.989-.247-3.35-2.274-4.168-4.035a16.605,16.605,0,0,1-.952-2.646,8.9,8.9,0,0,1-2.036,3.446,11.789,11.789,0,0,1-6.824,3.511l.894-1.3A8.975,8.975,0,0,1,304,344.1l.352,3.179s-5.872-2.951-1.694-10a24.249,24.249,0,0,1,3.778-4.673c.295-.3.591-.571.886-.837,8.308-7.414,15.674-2.208,15.674-2.208a7.094,7.094,0,0,1,5.368.657,6.7,6.7,0,0,1,.656.456,10.8,10.8,0,0,1,3.96,7.9A12.648,12.648,0,0,1,331.861,344.634Z"/><path class="aj" d="M332.984,338.572c-.286-.229-.562-.524-.847-.752a3.251,3.251,0,0,0-2.1-.705,7.35,7.35,0,0,0-3.464,1.485,4.733,4.733,0,0,1-3.588.961c-.723-.19-1.361-.7-2.065-.9a16.605,16.605,0,0,1-.952-2.646,8.9,8.9,0,0,1-2.036,3.446c-2.18,1.065-4.749,1.646-6.919.637-1.152-.533-2.085-1.456-3.265-1.894a8.3,8.3,0,0,0-2.655-.361,4.939,4.939,0,0,1-1.9-.248,2.131,2.131,0,0,1-.524-.314,24.249,24.249,0,0,1,3.778-4.673c.295-.3.591-.571.886-.837.723.4,1.246,1.113,2,1.465a4.536,4.536,0,0,0,3.693-.38,6.953,6.953,0,0,1,3.654-.952c1.257.181,2.275,1.114,3.484,1.5a6.321,6.321,0,0,0,5.063-.943c1.1-.666,2.1-1.494,3.15-2.245a6.7,6.7,0,0,1,.656.456A10.8,10.8,0,0,1,332.984,338.572Z"/><path class="ak" d="M333.181,449.428s1.2,2.782.158,3.777-11.582.891-11.863-.118,5.057-3.74,5.057-3.74Z"/><path class="al" d="M315.278,389.9s-7.112,30.633-6.319,34.044c.785,3.379,17.574,25.413,17.574,25.413l6.648.072s-6.8-22.535-11.082-27.9c0,0,8.282-15.037,5.806-25.982S315.278,389.9,315.278,389.9Z"/><path class="am" d="M326.718,400.143l-6.89,22.53,11.9,26.258"/><path class="am" d="M324.237,399.738l-6.789,23.253,11.744,25.94"/><path class="ak" d="M361.255,444.189s2.564,1.611,2.275,3.02-9.028,7.309-9.833,6.638,2.04-5.95,2.04-5.95Z"/><path class="an" d="M340.149,394.916s-.014-.012-.041-.031c-.568-11.026-8.407-15.253-8.407-15.253l-15.741,3.861c-.044.121-.088.241-.13.361a12.278,12.278,0,0,0,10.888,16.289,60.6,60.6,0,0,0,15.85,32.264L355.6,448.931l5.9-4.6S343.23,413.87,340.149,394.916Z"/><path class="ao" d="M330.665,379.886s6.932,8.209,7.644,15.347,13.08,41.39,21.806,49.722"/><path class="ao" d="M329.193,381.358s6.931,8.209,7.643,15.347,13.081,41.391,21.807,49.722"/><path class="ao" d="M326.093,381.691s2.308,7.058,7.7,6.444"/><path class="ap" d="M319.584,361.253c-6.232-.822-22.891-6.7-30.816-23.464l-1.538,8.65s8.758,23.273,32.019,22.641a3.913,3.913,0,0,0,3.623-4.858h0A3.915,3.915,0,0,0,319.584,361.253Z"/><path class="u" d="M287.014,335.446a.174.174,0,0,1,.265-.152,4.419,4.419,0,0,1,1.737,2.62c.7,2.322-.474,7.847-2,8.713Z"/><path class="aq" d="M322.57,358.6c-2.681.612-5.932.521-8.1,1.908-7.237,4.643-2.431,8.234-1.935,12.3.024.191,3.42,10.685,3.42,10.685l15.741-3.861s.13-6.052.156-12.455C331.881,360.933,327.265,357.533,322.57,358.6Z"/><path class="ar" d="M328.728,365.082c-4.9,8.71-15.6,9.622-15.6,9.622s9.1,3.329,11.713,1.425S328.728,365.082,328.728,365.082Z"/><path class="ar" d="M323.033,359.7c-4.488,5.076-12.408,7.26-12.408,7.26Z"/><path class="aq" d="M323.033,359.7a35.339,35.339,0,0,1-35.958,6.912l-.023,6.194s26.919,10.265,41.676-7.726a3.914,3.914,0,0,0-1.3-5.92h0A3.916,3.916,0,0,0,323.033,359.7Z"/><path class="u" d="M287.052,361.071s1.251.555,1.726,2.934-.121,8.09-1.726,8.8Z"/></g></svg>