<svg xmlns="http://www.w3.org/2000/svg" width="126.907" height="144.684" viewBox="0 0 126.907 144.684"><defs><style>.a{fill:#fff;}</style></defs><path class="a" d="M112.71,83.316c-.289.008-.6.024-.937.024a12.624,12.624,0,0,0-8.731,3.7,12.069,12.069,0,0,0-3.573,8.587A12.307,12.307,0,0,0,111.741,107.9h13.874a2.119,2.119,0,0,1,0,4.238H111.741a16.46,16.46,0,0,1-11.7-28.092,16.836,16.836,0,0,1,9.06-4.686,7.217,7.217,0,0,1-1.538-4.462V66.463a7.271,7.271,0,0,1,6.713-7.242,7.421,7.421,0,0,1-.072-1.042V52.62a5.033,5.033,0,0,1,5.023-5.031h7.482a2.12,2.12,0,0,1,2.115,2.123v8.467a7.423,7.423,0,0,1-.072,1.042,7.238,7.238,0,0,1,4.582,2.107,7.755,7.755,0,0,1,1.33,1.81,59.3,59.3,0,0,1,6.2-3.677,63.753,63.753,0,0,1,7.69-3.324,59.271,59.271,0,0,0-44.169-33.363c-1.226,3.661-2.6,7.714-3.861,11.359-1.113,3.212-2.083,5.928-2.691,7.49-1.418,3.612-2.98,6.264-5.135,8.138a14.242,14.242,0,0,1-8.683,3.276,24.68,24.68,0,0,0-4.133.609,2.112,2.112,0,0,1-1.041-4.094,28.246,28.246,0,0,1,4.838-.737,10.287,10.287,0,0,0,6.24-2.251c1.586-1.378,2.8-3.508,3.973-6.481.657-1.682,1.594-4.318,2.643-7.33,1.089-3.148,2.371-6.921,3.573-10.518-1.714-.144-3.444-.224-5.2-.224a59.464,59.464,0,0,0-14.9,1.882,58.8,58.8,0,0,0-13,5.087,7.321,7.321,0,0,1-1.938,3.461,7.4,7.4,0,0,1-3.012,1.818V45.21A7.275,7.275,0,0,1,54.8,52.475H51.712a7.276,7.276,0,0,1-6.336-3.717A58.671,58.671,0,0,0,38.9,61.952c-.272.777-.521,1.562-.761,2.355h16.83c4.983,0,8.082-2.531,11.471-6.064,1.074-1.129,2.179-2.243,3.324-3.3a2.117,2.117,0,0,1,2.868,3.116c-1.089,1-2.131,2.051-3.148,3.116C65.21,65.636,61.253,68.544,55,68.544H37.053a59.62,59.62,0,0,0-1.361,12.688,58.973,58.973,0,0,0,6.144,26.29H59.786a7.22,7.22,0,0,1-.665-3.028V96.059a7.286,7.286,0,0,1,6.713-7.249,7.3,7.3,0,0,1-.072-1.033V82.209a5.032,5.032,0,0,1,5.023-5.023h7.482a2.121,2.121,0,0,1,2.123,2.123v8.467a7.292,7.292,0,0,1-.08,1.033,7.286,7.286,0,0,1,6.713,7.249v8.435a7.272,7.272,0,0,1-5.142,6.945v6.512a22.567,22.567,0,0,0,3.533,3.268,7.659,7.659,0,0,0,4.374,1.466,16.835,16.835,0,0,1,4.238.513,2.109,2.109,0,1,1-1.05,4.085,14.022,14.022,0,0,0-3.22-.376,11.683,11.683,0,0,1-6.737-2.211c-.432-.3-.857-.625-1.257-.961a7.288,7.288,0,0,1-7.145,5.928H71.529a7.275,7.275,0,0,1-7.265-7.265V111.76H44.158A59.793,59.793,0,0,0,53.034,123.1,59.279,59.279,0,0,0,102.208,140c-.208-.545-.409-1.074-.609-1.586-.465-1.209-.865-2.219-1.178-2.948a29.161,29.161,0,0,0-1.538-3.18,2.111,2.111,0,1,1,3.669-2.091,32.293,32.293,0,0,1,1.762,3.637c.352.825.761,1.866,1.226,3.06.28.721.593,1.538.929,2.427A59.078,59.078,0,0,0,136.781,123.1a59.761,59.761,0,0,0,8.651-10.966H135.211a2.119,2.119,0,0,1,0-4.238H147.8a59.395,59.395,0,0,0,2.419-47.87,58.853,58.853,0,0,0-7.409,3.2,54.787,54.787,0,0,0-7.338,4.518V74.9a7.3,7.3,0,0,1-5.142,6.953V92.807a7.275,7.275,0,0,1-7.265,7.258h-3.084a7.275,7.275,0,0,1-7.265-7.258ZM67.957,92.993a9.3,9.3,0,0,1-1.57.04,3.035,3.035,0,0,0-3.028,3.028V104.5a3.035,3.035,0,0,0,3.028,3.028,2.113,2.113,0,0,1,2.115,2.115V122.4a3.035,3.035,0,0,0,3.028,3.028h3.084a3.035,3.035,0,0,0,3.028-3.028v-12.76a2.115,2.115,0,0,1,2.123-2.115,3.035,3.035,0,0,0,3.02-3.028V96.061a3.035,3.035,0,0,0-3.02-3.028c-.5,0-1.122.04-1.6-.008a7.291,7.291,0,0,1-10.2-.032Zm7.281-3.044a3.065,3.065,0,0,0,.905-2.171V81.426H70.784A.8.8,0,0,0,70,82.21v5.567a3.09,3.09,0,0,0,3.076,3.076A3.032,3.032,0,0,0,75.238,89.949ZM60.563,10.59a7.5,7.5,0,0,1-.072,1.041A7.271,7.271,0,0,1,67.2,18.873v5.27A62.416,62.416,0,0,1,78.947,19.81a63.678,63.678,0,1,1-34.5,22.966V34.26a7.314,7.314,0,0,1-5.15-6.953V18.873a7.286,7.286,0,0,1,6.72-7.242,7.5,7.5,0,0,1-.08-1.041V5.031A5.033,5.033,0,0,1,50.967,0h7.482a2.119,2.119,0,0,1,2.115,2.123Zm-2.227,5.247a7.282,7.282,0,0,1-10.2-.032,9.394,9.394,0,0,1-1.578.04,3.035,3.035,0,0,0-3.02,3.028v8.435a3.035,3.035,0,0,0,3.02,3.028,2.12,2.12,0,0,1,2.123,2.115V45.21a3.009,3.009,0,0,0,.889,2.139,3.042,3.042,0,0,0,2.139.889H54.8a3.05,3.05,0,0,0,3.028-3.028V32.45a2.113,2.113,0,0,1,2.115-2.115,3.035,3.035,0,0,0,3.028-3.028V18.873a3.035,3.035,0,0,0-3.028-3.028c-.5,0-1.113.04-1.6-.008Zm-2.915-3.076a3.066,3.066,0,0,0,.905-2.171V4.238H50.967a.793.793,0,0,0-.785.793V10.59a3.064,3.064,0,0,0,5.239,2.171ZM116.4,63.4a10.252,10.252,0,0,1-1.57.032,3.049,3.049,0,0,0-3.028,3.028V74.9a3.043,3.043,0,0,0,.889,2.139,3.009,3.009,0,0,0,2.139.889,2.119,2.119,0,0,1,2.115,2.123v12.76a3.036,3.036,0,0,0,3.028,3.02h3.084a3.036,3.036,0,0,0,3.028-3.02V80.048a2.121,2.121,0,0,1,2.123-2.123,3.036,3.036,0,0,0,3.02-3.028V66.462a3.05,3.05,0,0,0-3.02-3.028c-.5,0-1.122.04-1.6-.008a7.3,7.3,0,0,1-10.2-.024Zm7.282-3.052a3.038,3.038,0,0,0,.905-2.171V51.827h-5.359a.8.8,0,0,0-.785.793v5.559a3.064,3.064,0,0,0,5.239,2.171Z" transform="translate(-31.454 0)"/></svg>