<svg xmlns="http://www.w3.org/2000/svg" xmlns:xlink="http://www.w3.org/1999/xlink" width="464.787" height="434.714" viewBox="0 0 464.787 434.714"><defs><style>.a,.j,.k,.q,.s,.u,.y,.z{fill:none;}.b{opacity:0.3;}.b,.j,.l,.q,.u,.x,.y,.z{mix-blend-mode:multiply;isolation:isolate;}.c,.e{fill:#c7e0e8;}.d{fill:#74acc2;}.e{opacity:0.2;}.f{clip-path:url(#a);}.g{fill:#6aa181;}.h,.l{fill:#edb698;}.i{fill:#d79a73;}.j{stroke:#eaab88;stroke-width:0.75px;}.j,.k,.q,.s,.u,.y,.z{stroke-miterlimit:10;}.k{stroke:#000;}.m{fill:#4c241c;}.n{fill:#c8615a;}.o{fill:#a04c4a;}.p{fill:#4a6e99;}.q{stroke:#4a6e99;}.r{fill:#e9c352;}.s,.y{stroke:#d8a821;}.t{fill:#8e6447;}.u{stroke:#8e6447;}.u,.z{opacity:0.5;}.v{fill:#d8a821;}.w,.x{fill:#eaab88;}.z{stroke:#c8615a;}</style><clipPath id="a"><path class="a" d="M781.717,270.525q-3.676-1.252-7.317-2.6c-20.219-7.517-38.128-23.178-49.674-44.055a133.818,133.818,0,0,1-14.5-86.422q.082-.463.168-.926c-1.6-8.831-9.77-57.923,16.906-102.05C751.856-6.151,803.674-31.474,839.155,6.12,854.219,22.08,857.962,42.432,859,49.846c4.663-7.938,17.189-26.875,39.609-36.01C937.693-2.088,971.86,26.025,975.355,29c.815-3.112,4.053-14.122,13.653-20.949,14.452-10.277,30.046-1.637,31.191-.975.309.18,8.7-6.917,9.913-7.641A49.336,49.336,0,0,1,1043.4-6.1c18.2-4.572,39.17,3.636,50.31,21.776a41.557,41.557,0,0,1,5.459,29.749c-2.437,11.62-9.623,20.948-12.935,32.186a60.634,60.634,0,0,0-.242,32.452c1.374,5.2,3.822,14.836,7.778,18.289a87.5,87.5,0,0,1,27.627,47.6c8.7,40.766-11.019,84.534-44.939,94.035-56.934,15.947-128.835,18.623-167.414,18.758C866.339,288.9,822.857,284.538,781.717,270.525Z"/></clipPath></defs><g transform="translate(-688.88 75.835)"><g class="b"><path class="c" d="M1033.561-35.7l.675.132c-3.19,8.5-11.057,11.38-20.754,11.748-20.469.776-40.123-8.086-60.475-10.967a103.074,103.074,0,0,0-55.675,7.543c-11.485,5.083-21.721,12.262-31.438,19.869a344.542,344.542,0,0,0-78.029,85.6c-8.843,13.852-16.924,28.647-30.116,39.012S724.4,132.4,709.464,123.609c-10-5.886-15.711-16.621-18.34-27.327-2.752-11.2-2.682-22.812-1.348-34.145C694.744,19.924,717.944-19.957,753.71-45.5S837.5-81.619,882.292-72.741C911.234-67,938.246-53.682,967.338-48.762a150.117,150.117,0,0,0,42.8,1.05c5.475-.657,11.215-1.591,16.429.279S1036.223-40.173,1033.561-35.7Z"/><path class="c" d="M983.739,339.6c10.578,1.494,21.6,1.556,31.291-6.782s17.686-27.106,16.922-47.556c-.641-17.155-7.235-31.778-15.052-39.995s-16.781-11.155-25.558-13.972q-18.825-6.043-37.651-12.084c-11.764-3.776-23.863-7.543-35.524-2.72s-22.944,20.28-25.714,42.7C884.111,326.7,963.637,336.759,983.739,339.6Z"/><path class="c" d="M1082.278-29.086c2.857,8.084,8.567,14.986,15.255,20.37,7.754,6.242,17.441,10.74,27.188,9.942,7.316-.6,14.046-4.116,19.862-8.5,2.839-2.139,5.575-4.575,7.2-7.757,2.281-4.478,2.082-9.849,1.522-14.919-2.158-19.556-16.325-51.161-41.21-43.848C1093.3-68.271,1074.883-50.006,1082.278-29.086Z"/><path class="c" d="M720.427,321.145c2.857,8.084,8.567,14.985,15.255,20.369,7.754,6.242,17.441,10.741,27.187,9.943,7.317-.6,14.046-4.117,19.863-8.5,2.839-2.138,5.575-4.574,7.2-7.757,2.281-4.478,2.082-9.849,1.522-14.919-2.158-19.555-16.325-51.161-41.21-43.847C731.447,281.96,713.032,300.225,720.427,321.145Z"/><path class="c" d="M1059.548,341.37q1.164.888,2.443,1.713c12.679,8.166,31.9,8.787,46.992,6.089,17.224-3.08,36.732-16.366,38.159-40.054,1.346-22.369-14.453-39.675-29.864-47.367-14.729-7.352-31.346-9.958-46.01-2.365s-26.62,27.027-26.3,48.476C1045.157,320.242,1048.46,332.9,1059.548,341.37Z"/><path class="c" d="M705.768,272.1q.69.618,1.447,1.191c7.511,5.681,18.9,6.112,27.839,4.236,10.2-2.143,21.76-11.384,22.606-27.862a36.668,36.668,0,0,0-17.692-32.948c-8.726-5.114-18.57-6.927-27.257-1.645s-15.77,18.8-15.579,33.72C697.242,257.4,699.2,266.211,705.768,272.1Z"/><ellipse class="c" cx="8.733" cy="8.271" rx="8.733" ry="8.271" transform="translate(1023.269 342.336)"/><ellipse class="c" cx="154.229" cy="136.438" rx="154.229" ry="136.438" transform="translate(840.499 -10.411)"/></g><path class="d" d="M781.717,270.525q-3.676-1.252-7.317-2.6c-20.219-7.517-38.128-23.178-49.674-44.055a133.818,133.818,0,0,1-14.5-86.422q.082-.463.168-.926c-1.6-8.831-9.77-57.923,16.906-102.05C751.856-6.151,803.674-31.474,839.155,6.12,854.219,22.08,857.962,42.432,859,49.846c4.663-7.938,17.189-26.875,39.609-36.01C937.693-2.088,971.86,26.025,975.355,29c.815-3.112,4.053-14.122,13.653-20.949,14.452-10.277,30.046-1.637,31.191-.975.309.18,8.7-6.917,9.913-7.641A49.336,49.336,0,0,1,1043.4-6.1c18.2-4.572,39.17,3.636,50.31,21.776a41.557,41.557,0,0,1,5.459,29.749c-2.437,11.62-9.623,20.948-12.935,32.186a60.634,60.634,0,0,0-.242,32.452c1.374,5.2,3.822,14.836,7.778,18.289a87.5,87.5,0,0,1,27.627,47.6c8.7,40.766-11.019,84.534-44.939,94.035-56.934,15.947-128.835,18.623-167.414,18.758C866.339,288.9,822.857,284.538,781.717,270.525Z"/><path class="e" d="M787.721,255.6q-3.36-1.051-6.689-2.186a87.915,87.915,0,0,1-45.654-36.23c-12.953-20.619-18.52-46.294-14.017-70.251q.07-.375.144-.75c-1.545-7.18-9.444-47.084,14.435-82.616,21.979-32.7,68.932-52.733,101.6-21.884,13.869,13.1,17.469,29.644,18.487,35.668,4.172-6.392,15.4-21.63,35.733-28.817C927.2,36.009,958.582,59.154,961.794,61.6c.713-2.516,3.558-11.415,12.237-16.858,13.064-8.194,27.347-1.03,28.4-.481.283.149,7.859-5.525,8.956-6.1A47.052,47.052,0,0,1,1023.43,33.8c16.527-3.529,35.706,3.338,46.022,18.164,4.849,6.969,7.124,15.849,5.253,24.187-2.11,9.4-8.567,16.9-11.477,25.981a44.012,44.012,0,0,0,.085,26.323c1.3,4.23,3.621,12.073,7.256,14.913,5.158,4.029,20.063,16.757,25.609,38.892,8.308,33.157-9.239,68.466-40.041,75.836-51.7,12.371-117.157,13.827-152.289,13.554C864.96,271.349,825.319,267.382,787.721,255.6Z"/><ellipse class="d" cx="25.918" cy="26.616" rx="25.918" ry="26.616" transform="translate(1095.828 70.336)"/><ellipse class="d" cx="8.484" cy="9.95" rx="8.484" ry="9.95" transform="translate(1106.497 43.882)"/><path class="d" d="M1123.5,136.626c-.36,4.375,2.374,8.265,6.1,8.686s7.047-2.784,7.407-7.16-2.374-8.265-6.106-8.687S1123.857,132.25,1123.5,136.626Z"/><path class="d" d="M1111.961,328.018c-.359,4.376,2.374,8.265,6.1,8.687s7.048-2.784,7.407-7.16-2.374-8.266-6.1-8.687S1112.321,323.642,1111.961,328.018Z"/><path class="d" d="M987.633-10.915c-.705,8.737-8.094,15.061-16.505,14.124S956.47-5.57,957.174-14.307s8.094-15.06,16.505-14.123S988.337-19.651,987.633-10.915Z"/><path class="d" d="M1021.457-35.651a7.52,7.52,0,0,1-8.252,7.062,8.094,8.094,0,0,1-6.977-8.758,7.52,7.52,0,0,1,8.252-7.061A8.093,8.093,0,0,1,1021.457-35.651Z"/><ellipse class="d" cx="29.98" cy="32.653" rx="29.98" ry="32.653" transform="matrix(0.967, -0.255, 0.255, 0.967, 691.756, -56.517)"/><path class="d" d="M775.235-34.541a6.653,6.653,0,0,1-9.421-2.429,7.5,7.5,0,0,1,1.86-10.054,6.655,6.655,0,0,1,9.421,2.43A7.5,7.5,0,0,1,775.235-34.541Z"/><path class="d" d="M905.873,334.911c.362,10.8-8.5,19.637-19.784,19.738s-20.733-8.571-21.094-19.37,8.5-19.637,19.785-19.739S905.512,324.111,905.873,334.911Z"/><path class="d" d="M899.86,308.748a4.376,4.376,0,0,1-4.455,4.444,4.641,4.641,0,0,1-4.748-4.361,4.375,4.375,0,0,1,4.454-4.444A4.642,4.642,0,0,1,899.86,308.748Z"/><path class="d" d="M803.629,293.218c14.685,2.587,30.057,2.437,43.915,7.838,2.835,1.1,5.662,2.5,7.626,4.746,3.917,4.488,3.3,11.414,0,16.243s-8.7,7.944-14.138,10.465a112.232,112.232,0,0,1-76.874,6.192c-25.342-7.212-47.733-24.193-60.258-46.475-3.877-6.9-6.874-14.479-6.77-22.258s3.767-15.779,10.737-19.726c12.4-7.02,24.56,1.43,32.851,9.838A117.576,117.576,0,0,0,778.364,285.7,116.111,116.111,0,0,0,803.629,293.218Z"/><path class="d" d="M1086.489,285.094c8.342-4.513,15.977-10.688,24.985-13.445a11.814,11.814,0,0,1,5.638-.615c3.682.724,6.031,4.486,6.234,8.246s-1.3,7.486-3.059,10.923a72.3,72.3,0,0,1-36.094,33.644c-15.45,6.393-33.172,6.655-47.991.311-4.588-1.964-9-4.624-11.93-8.615s-4.17-9.506-2.2-14.275c3.509-8.483,12.84-9.019,20.215-8.039a72.948,72.948,0,0,0,44.2-8.135Z"/><g class="f"><path class="g" d="M909.494,179.057s52.874-50.679,117.235-25.624l-7.767,19.208s-73.955,1.7-85.83,23.63Z"/><path class="h" d="M1019.21,171.5a65.546,65.546,0,0,1,9.958,1.194c2.15.426,4.364.962,6.5.482s4.176-2.348,4.049-4.593a2.609,2.609,0,0,0,.615-3.968,2,2,0,0,0,1.136-2.619,5.07,5.07,0,0,0-2.131-2.328,29.839,29.839,0,0,0-13.269-4.965Z"/><path class="i" d="M1055.711,67.6a24.348,24.348,0,0,0-3.234-2.376,21.742,21.742,0,0,0-21.986-.526c-11.2,6.153-17.836,24.032-9.58,35.607,6.557,9.192,18.717,11.05,28.648,8.753,12.205-2.822,17.426-17.681,13.79-29.762A25.376,25.376,0,0,0,1055.711,67.6Z"/><path d="M1048.028,83.485c-.07.978.376,1.813.995,1.866s1.178-.7,1.248-1.677-.375-1.813-.994-1.865S1048.1,82.507,1048.028,83.485Z"/><path d="M1031.493,81.554c-.07.978.375,1.813.995,1.865s1.178-.7,1.248-1.676-.376-1.813-.995-1.866S1031.563,80.576,1031.493,81.554Z"/><path class="j" d="M1040.98,80.741a12.2,12.2,0,0,0-.612,1.641,12.463,12.463,0,0,0-.311,2.07l-.242,2.583"/><path class="k" d="M1044.955,90.585a4.509,4.509,0,0,1-2.585,1.5,6.755,6.755,0,0,1-4-.065,4.422,4.422,0,0,1-2.762-2.98"/><path class="l" d="M1050.122,91.656a3.782,3.782,0,0,0,4.161,3.473,3.981,3.981,0,0,0,3.2-4.518,3.783,3.783,0,0,0-4.161-3.473A3.98,3.98,0,0,0,1050.122,91.656Z"/><path class="l" d="M1023.27,88.868a3.781,3.781,0,0,0,4.161,3.473,3.98,3.98,0,0,0,3.2-4.517,3.783,3.783,0,0,0-4.161-3.473A3.98,3.98,0,0,0,1023.27,88.868Z"/><path class="m" d="M1064.033,73.03c-1.781-7.246-4.287-14.553-9.094-19.939-2.529-2.834-7.367-7.48-11.292-5.131-2.948,1.764-.613,6.992,1.037,8.883a21.007,21.007,0,0,0-10.119-6.669c-3.126-.843-7.818.114-6.416,4.868a6.565,6.565,0,0,0,3.708,3.974,17.46,17.46,0,0,0-10.059-3.383,9.892,9.892,0,0,0-4.751.988c-3.069,1.621-4.8,5.605-4.334,9.275a11.225,11.225,0,0,0,6,8.436,12.835,12.835,0,0,0,9.993.429c-1.122.394-1.467,2.1-.892,3.216a4.266,4.266,0,0,0,2.9,1.992c3.486.859,7.136-.483,10.233-2.419a22.3,22.3,0,0,0,6.954-6.6,6.234,6.234,0,0,0,2.518,6.76,5.219,5.219,0,0,0,6.623-1.215,7.6,7.6,0,0,0,.65,5.6,3.835,3.835,0,0,0,4.658,1.767,6.58,6.58,0,0,0-.146,3.4c.287.894,1.6,2.142,2.441,1.324.789-.769.775-3.889.814-4.962A38.771,38.771,0,0,0,1064.033,73.03Z"/><path class="i" d="M1069.152,90.73a3.908,3.908,0,0,1-4.319,3.569,4.12,4.12,0,0,1-3.287-4.689,3.908,3.908,0,0,1,4.319-3.569A4.12,4.12,0,0,1,1069.152,90.73Z"/><path class="j" d="M1066.263,88.342a5.59,5.59,0,0,0-3.277,3.555"/><path class="j" d="M1064.589,89.522a4.145,4.145,0,0,1,1.1,2.524"/><path class="n" d="M1002.632,222.913s-18.274,26.929-24.186,64.91c0,0,87.911-1.167,104.685-25.571,0,0-5.958-21.373-16.984-32.482C1066.147,229.77,1032.192,239.094,1002.632,222.913Z"/><path class="o" d="M1027.649,282.131l2.1-35.007-9.9,36.766S1025.727,284.469,1027.649,282.131Z"/><path class="p" d="M1002.632,222.913l-1.388-75.669c-.208-11.327,6.12-21.649,15.886-25.642l.242-.1c13.642-5.479,33.21-3.341,45.906,4.265a44.994,44.994,0,0,1,7.083,5.28c8.969,8.131,12.81,21.15,10.024,33.471-5.189,22.951-14.238,65.25-14.238,65.25S1037.251,240.241,1002.632,222.913Z"/><path class="q" d="M1026.454,127.306c.2,6.286,4.871,12.066,10.587,13.09s11.854-2.82,13.9-8.7"/><path class="p" d="M1059.032,123.541s43.784,11.461,50.621,48.742l-32.066,4.773S1073.656,137.154,1059.032,123.541Z"/><path class="i" d="M1086.626,175.711s12.807,37.889-14.225,84.961c0,0-3.219,3.989,1.731,5.466,0,0-2.015,5.178,3.347,3.572,0,0,.984,5.927,5.679,1.772,0,0,38.705-24.919,23.233-98.714Z"/><path class="i" d="M1031.661,108.269c-.062-.022-2.117,16.941-2.117,16.941a10.688,10.688,0,0,0,8.291,8.542A10.069,10.069,0,0,0,1048.516,128q1.562-9.786,3.124-19.572Z"/><path class="l" d="M1031.661,108.269s8.35,3.918,19.979.163l-1.268,7.946S1037.71,117.283,1031.661,108.269Z"/><path class="i" d="M988.349,113.907s-36.321-8.6-58.4-58.625c0,0-1.373-5.089-5.177-1.348,0,0-2.944-4.624-4.572,1.15,0,0-5.135-2.28-4.425,4.252,0,0-1.4,48.829,64.256,74.256Z"/><path class="p" d="M1025.327,119.261s-19.8-6.49-35.506-18.537c0,0-13.171,26.524-12.587,46.7l24.241,12.389S1005.64,132.166,1025.327,119.261Z"/><path class="r" d="M947.5,159.446s-18.972,6.381-32.15,3.074c0,0,3.075,21.212-6.063,33.19a65.147,65.147,0,0,0,39.226.919Z"/><path class="s" d="M915.957,195.014a36.94,36.94,0,0,0,1.575-3.985c.547-1.662.976-3.361,1.4-5.059,1.674-6.633,3.36-13.5,2.271-20.263"/><path class="i" d="M910.1,193.42s-65.839-25.992-92.486-48.414c0,0-3.351-1.553-.7-4.1,0,0-1.65-4.082,3.012-4.385,0,0-.957-2.958,3.386-2.656,0,0,67.291,38.042,92.434,33.1C915.745,166.959,917.175,185.015,910.1,193.42Z"/><path class="g" d="M874.691,161.165c-11.182.618-20.068,10.24-20.5,22.22a219.412,219.412,0,0,1-4.018,34.686,215.187,215.187,0,0,1-23.619,63.982l111.622,8.176c-3.856-18.744-.085-92.4,1.131-101.177,1.755-12.67-10.941-24-22.781-25.83a201.257,201.257,0,0,0-22.021-2.174C887.5,160.743,880.877,160.823,874.691,161.165Z"/><path class="h" d="M886.029,148.546l-1.463,16.268c1.993,5.812,7.124,9.644,12.686,9.556a13.348,13.348,0,0,0,11.659-7.99q-.25-6.839-.5-13.678S892.574,154.285,886.029,148.546Z"/><path class="h" d="M918.882,115.217c-3.847-10.363-14.016-17.069-23.984-16.791a19.807,19.807,0,0,0-13.286,5.628c-4.365,4.22-6.66,10.39-7.629,16.606-1.111,7.133-.32,14.554,3.716,20.412,6.045,8.776,18.011,12.439,27.39,8.994,11.124-4.086,17.482-16.312,15.334-29.05A31.837,31.837,0,0,0,918.882,115.217Z"/><path class="t" d="M920.723,125.343a11.361,11.361,0,0,1-5.828,4.8,7.441,7.441,0,0,1-6.809-1.124c-1.9-1.513-2.754-4.058-4.525-5.715-3.863-3.615-10.188-3.278-14.143-.008-3.484,2.881-6.811,8.29-11.836,5.557-1.191-.648-4.378-2.763-4.1-4.553-1.543,9.794,2.563,20.7,10.659,25.838,4.76,3.023,10.055,3.695,15.488,3.753,10.622.113,20.85-7.388,21.4-19.335.064-1.394,0-2.783-.06-4.175-.067-1.514-.576-3.449-.291-4.948A.236.236,0,0,1,920.723,125.343Z"/><path d="M905.541,116.568c-.041,1.124.512,2.06,1.234,2.09s1.341-.857,1.381-1.982-.511-2.061-1.234-2.091S905.581,115.443,905.541,116.568Z"/><path d="M886.235,115.152c-.04,1.125.512,2.061,1.235,2.091s1.34-.858,1.381-1.983-.512-2.06-1.234-2.09S886.276,114.027,886.235,115.152Z"/><path class="j" d="M897.66,112.252a13.88,13.88,0,0,0-.643,1.911,14.223,14.223,0,0,0-.276,2.388l-.174,2.973"/><path class="k" d="M902.263,124.857a5.292,5.292,0,0,1-2.944,1.842,7.957,7.957,0,0,1-4.652.119,5.065,5.065,0,0,1-3.335-3.283"/><path class="l" d="M908.315,125.835a4.356,4.356,0,0,0,4.981,3.781,4.6,4.6,0,0,0,3.532-5.334,4.357,4.357,0,0,0-4.982-3.781A4.6,4.6,0,0,0,908.315,125.835Z"/><path class="l" d="M876.979,123.937a4.357,4.357,0,0,0,4.982,3.781,4.6,4.6,0,0,0,3.532-5.334,4.358,4.358,0,0,0-4.982-3.782A4.6,4.6,0,0,0,876.979,123.937Z"/><path class="u" d="M881.242,132.765a23.345,23.345,0,0,0,2.087,15.5"/><path class="u" d="M888.549,129.774a86.556,86.556,0,0,0-.9,11.064,28.722,28.722,0,0,0,1.928,10.842"/><path class="u" d="M896.7,129.862a65.008,65.008,0,0,1-.626,20.64"/><path class="u" d="M903.685,131.527a87.756,87.756,0,0,1-.381,20.583"/><path class="u" d="M911.632,133.557a16.537,16.537,0,0,1,.717,5.075c-.06,3.951-1.517,7.7-2.951,11.344"/><path class="t" d="M921.339,129.185a64.083,64.083,0,0,0,2.72-16.565c.148-4.658-.344-9.689-3.192-13.214-2.923-3.618-7.6-4.8-11.677-6.749a37.073,37.073,0,0,1-6.66-4.158,20.277,20.277,0,0,1-5.6-6.092,27.839,27.839,0,0,1-2.38-7.291c-4.284,2.953-6.121,9.381-4.115,14.4a33.23,33.23,0,0,1-5.069-7.707,7.32,7.32,0,0,0-1.976,5.276,7.243,7.243,0,0,0,2.357,5.093A21.574,21.574,0,0,1,873.7,83.258a6.78,6.78,0,0,0-1.812-2.232.63.63,0,0,0-.442-.133.745.745,0,0,0-.415.368,17.688,17.688,0,0,0-2.212,13.567,19.822,19.822,0,0,0,7.553,11.305c-1.531-.036-3.5-.3-4.611-1.435a5.794,5.794,0,0,0,.2,4.531,5.144,5.144,0,0,0,3.367,2.751,12.869,12.869,0,0,0-2.576,6.628,23.675,23.675,0,0,0,.661,7.156,38.933,38.933,0,0,1,1.29-4.393c1.607-4.1,3.37-8.206,6.06-11.594a22.859,22.859,0,0,1,8.674-6.73c1.721.5,3.379,1.012,5.113,1.459a19.3,19.3,0,0,0,10.713-.328c2.672.706,4.907,2.755,6.671,5.016a41.013,41.013,0,0,1,4.316,7.512A74.843,74.843,0,0,1,921.339,129.185Z"/><path class="u" d="M873.8,93.261a18.248,18.248,0,0,0,9.611,10.283"/><path class="u" d="M880.361,94.638a37.5,37.5,0,0,0,4.683,3.965,13.373,13.373,0,0,0,5.525,2.309"/><path class="u" d="M888.548,93.439c2.222,1.734,3.813,4.485,6.406,5.463"/><path class="u" d="M894.85,88.044c1.937,4.267,4.038,8.716,7.688,11.407"/><path class="u" d="M902.922,93.964a34.9,34.9,0,0,0,6.377,8.456"/><path class="h" d="M927.107,126.608a4.457,4.457,0,0,1-4.764,4.2,4.6,4.6,0,0,1-3.926-5.1,4.456,4.456,0,0,1,4.763-4.2A4.6,4.6,0,0,1,927.107,126.608Z"/><path class="j" d="M924.21,124.319c0,.07.115-.021.066-.067s-.125,0-.177.035a8.64,8.64,0,0,0-2.727,3.675"/><path class="j" d="M922.993,125.66a6.994,6.994,0,0,1,.544,3.03"/><path class="g" d="M876.817,176.385s-57.841-44.592-119.229-12.625l9.719,18.247s73.71-6.417,87.8,14.085Z"/><path class="h" d="M766.943,180.9a65.828,65.828,0,0,0-9.778,2.279c-2.093.66-4.239,1.435-6.416,1.192s-4.4-1.876-4.5-4.123a2.6,2.6,0,0,1-1.024-3.877,1.988,1.988,0,0,1-1.4-2.48,5.113,5.113,0,0,1,1.878-2.548,30.027,30.027,0,0,1,12.676-6.392Z"/><path class="v" d="M832.133,104.187a36.231,36.231,0,0,0-28.962.759C792.377,110.02,788.45,120.332,783.4,130.6c-8.72,17.73-23.421,31.359-43.4,33.02-6.322.525-12.582.639-17.992,4.446-6.939,4.882-10.127,13.255-10.425,21.668-.875,24.742,20.557,43.469,43,46.9a68.315,68.315,0,0,0,27.309-1.759c26.131-6.844,45.943-28.573,56.71-53.226q.9-2.064,1.714-4.167a99.9,99.9,0,0,0,6.379-44.32c-.26-3.014-.719-5.989-1.219-8.968-1.02-6.073-2.853-12.5-7.612-16.62a16.627,16.627,0,0,0-2.809-1.962A30.955,30.955,0,0,0,832.133,104.187Z"/><path class="w" d="M815.756,107.265a19.489,19.489,0,0,0-8.361,5.2,18.193,18.193,0,0,0-1.468,1.783c-2.911,4.042-3.845,9.2-3.81,14.134v.169a28.271,28.271,0,0,0,1.376,8.377,22.367,22.367,0,0,0,4.174,7.68,22.631,22.631,0,0,0,10.844,6.682,21.863,21.863,0,0,0,13.665-.086,17.68,17.68,0,0,0,9.44-8.977,30.07,30.07,0,0,0,2.7-14.972c-.3-4.948-1.434-10.131-4.536-14.06-3.539-4.482-8.5-6.531-13.981-6.989A25.833,25.833,0,0,0,815.756,107.265Z"/><path d="M816.7,126.814c.092.851-.294,1.594-.864,1.66s-1.107-.571-1.2-1.422.294-1.594.864-1.66S816.6,125.963,816.7,126.814Z"/><path d="M832.046,124.6c.093.851-.294,1.594-.864,1.659s-1.107-.571-1.2-1.422.294-1.594.864-1.66S831.954,123.746,832.046,124.6Z"/><path class="j" d="M823.117,124.194a10.129,10.129,0,0,1,.612,1.411,10.469,10.469,0,0,1,.347,1.8l.3,2.245"/><path class="k" d="M819.734,132.911a4.208,4.208,0,0,0,2.428,1.223,6.567,6.567,0,0,0,3.687-.185,3.963,3.963,0,0,0,2.461-2.689"/><path class="x" d="M815,134.011a3.452,3.452,0,0,1-3.738,3.164,3.494,3.494,0,0,1-3.081-3.839,3.451,3.451,0,0,1,3.738-3.164A3.494,3.494,0,0,1,815,134.011Z"/><path class="x" d="M839.687,130.716a3.451,3.451,0,0,1-3.737,3.164,3.494,3.494,0,0,1-3.081-3.839,3.45,3.45,0,0,1,3.737-3.164A3.493,3.493,0,0,1,839.687,130.716Z"/><path class="k" d="M818.538,131.439l-7.241,1.267a3.5,3.5,0,0,1-4.016-2.924l-.669-4.036a3.577,3.577,0,0,1,2.847-4.125l7.24-1.266a3.5,3.5,0,0,1,4.016,2.924l.67,4.035A3.578,3.578,0,0,1,818.538,131.439Z"/><path class="k" d="M838.3,127.982l-8.352,1.461a2.935,2.935,0,0,1-3.366-2.45l-.859-5.178a3,3,0,0,1,2.386-3.456l8.353-1.461a2.934,2.934,0,0,1,3.365,2.45l.859,5.178A3,3,0,0,1,838.3,127.982Z"/><path class="k" d="M821.077,123.688A7.047,7.047,0,0,1,824.8,122.2a1.333,1.333,0,0,1,.89.16"/><path class="v" d="M801.473,106.132a12.22,12.22,0,0,0-1.287,3.409,20.086,20.086,0,0,0,2.349,13.29l2.357-.44-.232-11.154,1.51,10.026,13.714-1.955-.392-9.449,2.026,9.063,11.168-2.068-.473-3.986,1.91,3.8,9.077-1.2a19.853,19.853,0,0,0-2.49-9.81,18.907,18.907,0,0,0-3.859-4.8,26.37,26.37,0,0,0-17.661-4.811C812.98,96.653,804.83,100.094,801.473,106.132Z"/><path class="y" d="M809.316,101.093a50.474,50.474,0,0,0,2.921,18.317"/><path class="y" d="M812.831,102.185c-.15,5.189.943,10.321,2.03,15.39"/><path class="y" d="M821.171,100.052a7.822,7.822,0,0,1,1.523,3.042,50,50,0,0,1,2.178,11.247"/><path class="y" d="M824.6,100.844a34.539,34.539,0,0,1,3.12,13.006"/><path class="y" d="M828.84,101.805c.092-.317.563-.148.794.083,2.99,2.982,4.62,7.131,5.587,11.295"/><path class="y" d="M833.217,102.213a5.936,5.936,0,0,1,2.642,3.054,24.217,24.217,0,0,1,2.006,6.089"/><path class="w" d="M804.978,132.585a4.744,4.744,0,0,1-5.138,4.349,4.8,4.8,0,0,1-4.234-5.276,4.743,4.743,0,0,1,5.137-4.348A4.8,4.8,0,0,1,804.978,132.585Z"/><path class="j" d="M800.791,129.553a8.853,8.853,0,0,0-1.343,5.458"/><path class="j" d="M800.164,131.909q.855,1.224,1.709,2.447"/><path class="i" d="M844.9,169.045s43.779-.785,26.026,119.882c0,0-21.316-1.9-25.273-3.623C845.651,285.3,869.759,182.552,844.9,169.045Z"/><path class="n" d="M774.434,177.394c5-6.763,12.553-10.959,20.684-12.867,7.1-1.664,14.344-1.351,21.574-1.085a95.5,95.5,0,0,1,22.09,3.284,36.139,36.139,0,0,1,25.331,43.363L845.651,285.3a136.688,136.688,0,0,1-57.52-16.164,132.553,132.553,0,0,1-21.818-14.875,109.235,109.235,0,0,1-2.814-45.728C765.159,197.682,768.051,186.034,774.434,177.394Z"/><path class="o" d="M791.536,175.04l-2.064-.9-1.89,1.237.194-2.293-1.73-1.464,2.184-.519.821-2.142,1.156,1.972,2.237.14-1.469,1.738Z"/><path class="o" d="M847.861,182.128l-2.064-.9-1.89,1.237.194-2.293-1.73-1.464,2.184-.519.821-2.142,1.156,1.972,2.237.14L847.3,179.9Z"/><path class="o" d="M803.889,244.143l-2.064-.9-1.89,1.237.194-2.293-1.73-1.464,2.184-.519.821-2.142,1.156,1.972,2.237.14-1.469,1.738Z"/><path class="o" d="M844.082,239.686l-2.064-.9-1.89,1.237.194-2.293-1.73-1.464,2.184-.519.821-2.142,1.156,1.972,2.237.14-1.469,1.738Z"/><path class="o" d="M828.334,192.7l-1.051-.458-.963.63.1-1.168-.881-.746,1.113-.265.418-1.091.589,1,1.14.072-.749.886Z"/><path class="o" d="M841.4,220.624l-1.051-.458-.963.63.1-1.168-.881-.746,1.113-.265.418-1.091.589,1,1.14.072-.749.885Z"/><path class="o" d="M780.105,249.284l-1.051-.458-.963.63.1-1.168-.881-.746,1.113-.265.418-1.091.589,1,1.14.072-.749.886Z"/><path class="o" d="M839.521,274.523l-1.052-.458-.963.63.1-1.168-.881-.746,1.112-.265.418-1.091.589,1,1.14.072-.749.886Z"/><path class="o" d="M788.951,188.809l-1.051-.458-.963.63.1-1.168-.881-.746,1.112-.265.419-1.091.589,1,1.14.072-.749.886Z"/><path class="o" d="M789.958,211.832l-2.064-.9L786,212.171l.194-2.293-1.73-1.464,2.184-.519.821-2.142,1.156,1.972,2.237.14L789.4,209.6Z"/><path class="o" d="M807.385,184.171l-2.683-3.878-4.632.071,2.763-3.819-1.5-4.5,4.39,1.518,3.707-2.853-.049,4.757,3.788,2.739-4.421,1.422Z"/><path class="o" d="M828.259,265.586l-2.683-3.878-4.632.071,2.763-3.819-1.5-4.5,4.39,1.518,3.707-2.853-.049,4.757,3.788,2.739-4.421,1.422Z"/><path class="o" d="M848.9,208.167l-2.683-3.878-4.632.071,2.763-3.819-1.5-4.5,4.39,1.518,3.707-2.853-.049,4.757,3.788,2.739-4.421,1.422Z"/><path class="o" d="M819,224.009l-3.366-4.866-5.812.089,3.466-4.791-1.878-5.649,5.508,1.9,4.651-3.58-.062,5.969,4.753,3.436-5.547,1.784Z"/><path class="w" d="M810.326,147.148a15.987,15.987,0,0,1,1.626,9.014,15.727,15.727,0,0,1-2.659,7.073l3.17,4.539a12.392,12.392,0,0,0,21.633-2.206h0a14.089,14.089,0,0,1,.327-15.417Z"/><path class="x" d="M814.519,149.755s11.807,5.64,19.9.4c0,0-3.189,5.132-2.431,8.857C831.992,159.008,821.785,157.435,814.519,149.755Z"/><path class="w" d="M786.145,183.533c10.223,19.848.268,45.593,11.418,64.957a34.724,34.724,0,0,0,17.423,14.884c13.535,5.234,29.478,1.756,42.573,7.991a5.906,5.906,0,0,1,2.858,2.292,2.239,2.239,0,0,1-.894,3.124c3.425,1.316,1.228,3.77-.439,4.654.921-.488,1.833.344,2.092,1.244.356,1.231-.65,2.334-1.644,2.872-2.5,1.352-5.452,1.257-8.188,1.042-10.691-.839-21.459-1.419-32.072-3.052a110.691,110.691,0,0,1-30.706-8.894q-2.406-1.14-4.739-2.436a48.542,48.542,0,0,1-18.086-16.991c-4.638-7.726-5.776-16.95-5.98-25.852-.027-1.175-.042-2.35-.054-3.525-.141-13.742,1.547-29.471,8.677-41.4,2.2-3.672,6.345-9.632,11.319-7.553C782.6,178.1,784.757,180.838,786.145,183.533Z"/><path class="n" d="M1010.51,126.885c-3.369-8.108-5.041-12.17-6.4-14.3a25.021,25.021,0,0,0-21.117-11.5c-8.638.151-16.467,4.848-24.451,8.233-4.328,1.835-9.52,3.238-13.483.677a7.81,7.81,0,0,0,7.888,6.17,20.984,20.984,0,0,1-4.979,4.786c-1.985,1.377-4.409,2.453-6.734,1.86-.485,12.473,5.369,25.189,15.412,32.221a39.947,39.947,0,0,0,34.9,4.913,27.883,27.883,0,0,0,8.829-4.545c-.747-1.358-1.581-3.006-2.328-4.364.623-.025,1.069.575,1.559.97a5.532,5.532,0,0,0,2.176.9,36.921,36.921,0,0,0,4.755.987,18.65,18.65,0,0,0,12.894-3.345,4.653,4.653,0,0,1-1.879-.763,17.812,17.812,0,0,1-4.938-5.422,8.45,8.45,0,0,0,7.892,1.651,10.483,10.483,0,0,0,6.225-5.422c-3.337-.307-8.23-1.354-11.777-5.174C1013.078,133.392,1012.429,131.5,1010.51,126.885Z"/><path class="i" d="M989.589,151.227a18.059,18.059,0,0,1-14.233-.272c-7.966-3.518-11.256-11.232-11.23-19.294a32.467,32.467,0,0,1,3.88-15.164c2.454-4.5,6.479-9.284,11.4-10.854,5.778-1.85,12.619.181,16.993,4.355a22.8,22.8,0,0,1,5.865,9.142C1006.123,130.579,1000.942,146.488,989.589,151.227Z"/><path d="M988.168,126.465c-.223.965.119,1.875.765,2.032s1.351-.5,1.574-1.461-.119-1.875-.765-2.033S988.391,125.5,988.168,126.465Z"/><path d="M971,121.721c-.223.965.119,1.875.766,2.032s1.35-.5,1.573-1.461-.119-1.875-.765-2.033S971.226,120.756,971,121.721Z"/><path class="j" d="M981.144,122.524a11.717,11.717,0,0,0-.9,1.535,11.886,11.886,0,0,0-.645,2.015q-.326,1.269-.65,2.538"/><path class="k" d="M983.839,133.033a4.843,4.843,0,0,1-2.958,1.056,7.629,7.629,0,0,1-4.213-.746,4.628,4.628,0,0,1-2.461-3.446"/><path class="l" d="M989.131,134.982a3.968,3.968,0,1,0,4.067-3.968A4.028,4.028,0,0,0,989.131,134.982Z"/><path class="l" d="M965.068,131.806a3.758,3.758,0,0,1-.942-.145,31.605,31.605,0,0,1,1.059-8,.63.63,0,0,1,.087,0,4.075,4.075,0,0,1-.2,8.144Z"/><path class="n" d="M979.064,103.641c-3.95,1.407-7.144,4.382-10.645,6.729a37.7,37.7,0,0,1-10.735,4.963,30.6,30.6,0,0,0,10.865,2.789,16.463,16.463,0,0,0,10.634-3.069,10.158,10.158,0,0,1-3.2,2.885c3.4,1.542,7.6.291,10.24-2.393,2.095-2.127,5.138-7.376,3.93-10.58C988.842,101.484,981.578,102.745,979.064,103.641Z"/><path class="n" d="M989.707,104.2s16.756,3.686,15.383,22.861C1005.09,127.058,989.848,124.833,989.707,104.2Z"/><path class="z" d="M963.912,119.524a44.251,44.251,0,0,1-21.28,10.545"/><path class="z" d="M961.776,129.2a31.875,31.875,0,0,1-14.335,9.548"/><path class="z" d="M963.032,139.552a14.744,14.744,0,0,1-8.078,7.567"/><path class="z" d="M1001.942,143.335a14.989,14.989,0,0,0,1.448,2.838,10.678,10.678,0,0,0,7.213,3.961"/><path class="z" d="M1006.379,129.948a17.819,17.819,0,0,0,13.542,10.527"/><path class="z" d="M1004.326,136.44a11.457,11.457,0,0,0,5.753,5.437"/><path class="r" d="M898.18,289.8c.521-24.327,5.054-63.406,27.953-102.441a193.919,193.919,0,0,1,19.3-27.222,81.441,81.441,0,0,1,62.1,8.842,392.644,392.644,0,0,0-24.993,118.462C971.125,288.548,959.115,289.391,898.18,289.8Z"/><path class="v" d="M968.4,159.5a31.749,31.749,0,0,0-11.47,2.784,95.731,95.731,0,0,0-10.129,5.453,14.319,14.319,0,0,1,6.495,2.612,14.53,14.53,0,0,1,3.34,3.426,11.668,11.668,0,0,0-5.107,4.059,12.188,12.188,0,0,0-2.2,6.456l12.218-.98q4.92-10.068,9.839-20.138a31.82,31.82,0,0,0,1.607-3.38A23.076,23.076,0,0,0,968.4,159.5Z"/><path class="v" d="M987.834,164.672a33.913,33.913,0,0,1,4.184,11.316,101.842,101.842,0,0,1,1.28,11.671,14.565,14.565,0,0,0-5.748-4.06,14.006,14.006,0,0,0-4.634-.921,12.267,12.267,0,0,1-.41,6.619,11.944,11.944,0,0,1-3.971,5.493q-3.03-5.469-6.059-10.94L983.2,164.2a31.964,31.964,0,0,1,1.824-3.262A24.308,24.308,0,0,1,987.834,164.672Z"/><path class="i" d="M970.82,148.113a12.682,12.682,0,0,1,.593,6.3,12.511,12.511,0,0,1-2.839,6.131,19.394,19.394,0,0,0-6.755,5.284,22.873,22.873,0,0,0-4.764,14.19,9.108,9.108,0,0,0,1.238,4.75c2.069,3.289,6.254,3.75,9.709,3.145,3.9-.682,6.358-2.727,9.284-5.237a32.969,32.969,0,0,0,8.79-11.932,33.337,33.337,0,0,0,2.552-9.973,10.8,10.8,0,0,1,1.739-9.9C988.136,150.946,985.665,150.892,970.82,148.113Z"/><path class="r" d="M1007.537,168.977s24.092,15.9,29.005,38.493c0,0-25.206,17.784-43.586,8.672C992.956,216.142,997.915,186.015,1007.537,168.977Z"/><path class="s" d="M998.628,213.826c5.753,1.28,11.8.469,17.408-1.355s10.865-4.629,16.085-7.42"/><path class="i" d="M1029.277,211.768s9.092,32.252-3.487,72.4l-20.611,2.483s15.338-55.386,1.145-67.949C1006.324,218.7,1022.013,216.066,1029.277,211.768Z"/><path class="l" d="M970.82,148.113s6.725,6.69,17.828,2.76l-18.522,7.384A12.41,12.41,0,0,0,970.82,148.113Z"/></g></g></svg>