<svg id="Camada_1" data-name="Camada 1" xmlns="http://www.w3.org/2000/svg" xmlns:xlink="http://www.w3.org/1999/xlink" viewBox="0 0 64 48"><defs><style>.cls-1{fill:none;}.cls-2{clip-path:url(#clip-path);}.cls-3{fill:#c61a18;}.cls-4{clip-path:url(#clip-path-2);}.cls-5{clip-path:url(#clip-path-4);}.cls-6{clip-path:url(#clip-path-6);}.cls-7{clip-path:url(#clip-path-8);}.cls-8{clip-path:url(#clip-path-10);}.cls-9{clip-path:url(#clip-path-12);}.cls-10{clip-path:url(#clip-path-14);}.cls-11{clip-path:url(#clip-path-16);}.cls-12{clip-path:url(#clip-path-18);}.cls-13{clip-path:url(#clip-path-20);}.cls-14{clip-path:url(#clip-path-22);}.cls-15{clip-path:url(#clip-path-24);}.cls-16{clip-path:url(#clip-path-26);}.cls-17{clip-path:url(#clip-path-28);}.cls-18{clip-path:url(#clip-path-30);}</style><clipPath id="clip-path"><rect class="cls-1" x="1.28" y="2.28" width="61.44" height="43.44"/></clipPath><clipPath id="clip-path-2"><path class="cls-1" d="M24.21,17.91c3.11-1.63,4.9-1.31,4.9-1.31.15-.16.47-.46.47-.46a11.84,11.84,0,0,0-5.14,0,13.53,13.53,0,0,1-4.71.14c-4.4-.64-4.76-3.52-4.76-3.52-1.26,8.64,6.12,6.77,9.24,5.14"/></clipPath><clipPath id="clip-path-4"><path class="cls-1" d="M14,16.1s-1.18,5,2.94,5.55a12,12,0,0,0,8.67-2.19c1.24-1,1.91-1.55,2.35-1.9s.66-.58.86-.69h0a11.9,11.9,0,0,0-4.57,1.42c-2.93,1.5-9.29,3.19-10.18-2.2Z"/></clipPath><clipPath id="clip-path-6"><path class="cls-1" d="M23.15,12.77c.86,2.31,3.72,2.54,4.38,2.6a4.35,4.35,0,0,1,2.39.57,2.49,2.49,0,0,1,.7-.44,6.42,6.42,0,0,0-3.09-.76C25,14.55,21.88,12,23.68,8.9c0,0-1.5,1.23-.53,3.87"/></clipPath><clipPath id="clip-path-8"><path class="cls-1" d="M44.73,16.29A13.55,13.55,0,0,1,40,16.15a11.84,11.84,0,0,0-5.14,0l.48.46s1.78-.32,4.9,1.31,10.49,3.5,9.24-5.14c0,0-.37,2.88-4.77,3.52"/></clipPath><clipPath id="clip-path-10"><path class="cls-1" d="M40.25,18.28a12,12,0,0,0-4.57-1.42h0c.2.11.42.35.85.69s1.12.92,2.36,1.9a12,12,0,0,0,8.66,2.19c4.13-.57,2.94-5.55,2.94-5.55l0,0c-.89,5.39-7.26,3.7-10.18,2.2"/></clipPath><clipPath id="clip-path-12"><path class="cls-1" d="M32.14,19.3c1.27,1.51,1.56,1.93,1.53,3.68a10.64,10.64,0,0,0,1-4c.25.52.6,1.19,1.07,2.06,1.57,2.9,3.13,4.15,7.66,2.92a8.62,8.62,0,0,1-5.54-3c-1.7-1.84-2.69-2.95-3.38-3.62a3.56,3.56,0,0,0-.23-.62c1,.88,2.5,2.55,3.15,3.14,3.62,3.31,5.41,4,9.68,4.06s4.07-4.7,4.07-4.7a5.44,5.44,0,0,1-3,2.76,12.09,12.09,0,0,1-10-2.69,30.7,30.7,0,0,0-4.63-3.54,4.48,4.48,0,0,0-1.59-1s-1.17,3,.11,4.51"/></clipPath><clipPath id="clip-path-14"><path class="cls-1" d="M36.93,14.74a6.4,6.4,0,0,0-3.08.76,2.54,2.54,0,0,1,.69.44,4.36,4.36,0,0,1,2.4-.57c.65-.06,3.52-.29,4.37-2.6,1-2.64-.53-3.87-.53-3.87,1.8,3.06-1.31,5.65-3.85,5.84"/></clipPath><clipPath id="clip-path-16"><path class="cls-1" d="M30.39,13.09c.51-1.91,3.18-1.28,3.18-1.28s.66-.39.66-.39a7.6,7.6,0,0,0-1.39-.15c-2.56,0-2.45,1.82-2.45,1.82"/></clipPath><clipPath id="clip-path-18"><path class="cls-1" d="M34.17,12.47a1.23,1.23,0,0,0,1.14.44,1.66,1.66,0,0,0,1-.62c.19-.32.1-.43-.62-.46h-.09c-.71,0-1.56.42-1.41.65"/></clipPath><clipPath id="clip-path-20"><path class="cls-1" d="M17,24.78c-1.1.63-2,2.77-2.09,4.13s-.08,2.66,1.6,2.68q.33,0,.63,0c1.38,0,2.43,0,2.35,1.53a6.37,6.37,0,0,1-1.07,3.69c-.59.77-1.63,1.3-2.22,1a.62.62,0,0,1-.27-.3l0,0a2,2,0,0,1-.05-.26,1.27,1.27,0,0,1,0-.28c0-.2,0-.42,0-.63,0-.44.1-.88.15-1.33,0-.22,0-.45.05-.68a2.88,2.88,0,0,0,0-.71.72.72,0,0,0-.16-.39l-.1-.08-.06,0h-.06a.55.55,0,0,0-.22,0,1,1,0,0,0-.36.15,3,3,0,0,0-.27.23,4.34,4.34,0,0,0-.42.54,6.65,6.65,0,0,0-.33.58,4.17,4.17,0,0,1,.41-.53,3.34,3.34,0,0,1,.47-.45,1.06,1.06,0,0,1,.26-.17.56.56,0,0,1,.26-.08l.12,0a.12.12,0,0,1,0,.05.64.64,0,0,1,.06.24,2.63,2.63,0,0,1-.06.61c0,.22-.08.43-.13.64-.1.43-.22.86-.32,1.3a5.79,5.79,0,0,0-.12.6c-.15.79,0,2.29,1.27,2.64a3.56,3.56,0,0,0,3.81-1.93,8.13,8.13,0,0,0,.61-5.41c-.45-1-1.61-1.3-3.17-1.12s-2.25-.18-2.11-1.86S16.65,25.3,18,25.37s.95,2.1.4,3.72h2A4,4,0,0,0,20.27,26a2.47,2.47,0,0,0-2.19-1.56,2.22,2.22,0,0,0-1.1.3"/></clipPath><clipPath id="clip-path-22"><path class="cls-1" d="M22.68,34.64a11,11,0,0,1,0-2.87s.3-3.4,1.14-3.4,1,2.56.68,4.32-.77,2.28-1.05,2.47a.57.57,0,0,1-.31.14h0c-.16,0-.32-.15-.46-.66m-.53-2.89a12.24,12.24,0,0,0,.29,3.69,1.17,1.17,0,0,0,1.7.54c.54-.24,1.33-.92,1.82-3.11s-.2-5.39-1.84-5.39-2,4.27-2,4.27"/></clipPath><clipPath id="clip-path-24"><path class="cls-1" d="M27.73,27.57,27,36.14h.63L28,30.52s.17-1.89,1.28-2.27.71,1.56.56,2-1.51,4.43-.94,5.86h1.26a9.86,9.86,0,0,1,.36-3.22c.49-1.67,1-3.31.63-4.5s-2.27-1.23-3.06.63l.1-1.48Z"/></clipPath><clipPath id="clip-path-26"><path class="cls-1" d="M42.64,29.26l.1-1.68h-.52l-.63,8.56h.63l.38-6.22a6,6,0,0,1,1-1.35c.69-.61,1.2-.3,1.36.11.3.77,0,2.52-.78,2.73a.55.55,0,0,1-.77-.51c0,.84.41,1.09,1.21,1s1.51-1.38,1.63-1.87.37-2.26-1.18-2.47l-.24,0c-1.41,0-2.23,1.7-2.23,1.7"/></clipPath><clipPath id="clip-path-28"><path class="cls-1" d="M34.83,11.43a6.86,6.86,0,0,0-4.09,4.46,34.41,34.41,0,0,0-4.53,3.48,12.08,12.08,0,0,1-10,2.69,5.47,5.47,0,0,1-3-2.76S13.07,24,17.34,24s6.07-.75,9.69-4.06c.74-.69,2.67-2.82,3.56-3.48,0,.15-.07.31-.1.47A52.64,52.64,0,0,0,26.57,21,8.65,8.65,0,0,1,21,24c4.54,1.23,5.67-.17,7.24-3.06a18.09,18.09,0,0,1,2.16-3.44l0,.41c-.14,3.31,1.91,3.45,2,5.57a45.82,45.82,0,0,1-.1,4.9l-.63,7.76h.63l.35-5.62s.17-1.89,1.28-2.27.7,1.56.56,2-1.3,3.81-1,5.46l.1.55c0,.19.09.37.14.55l.09.27.05.14,0,.06,0,.07a4.46,4.46,0,0,0,.93,1.49,3,3,0,0,0,1,.65,2.93,2.93,0,0,0,1.12.21A4.34,4.34,0,0,0,38,39.6a6.68,6.68,0,0,0,1-.35,6.34,6.34,0,0,0,.93-.49,7.06,7.06,0,0,1-1,.33,6.13,6.13,0,0,1-1,.18,4.64,4.64,0,0,1-1,0,2.79,2.79,0,0,1-.88-.31,2.23,2.23,0,0,1-.65-.61,2.56,2.56,0,0,1-.4-.81,3.66,3.66,0,0,1-.13-.44v-.12l0-.12,0-.23c0-.15,0-.3,0-.45h0v-.37a10.49,10.49,0,0,1,.38-2.85c.49-1.67,1-3.31.63-4.5s-2.28-1.23-3.06.63l.08-1.28c.08-1.11.23-2.78.39-3.63a4.44,4.44,0,0,0-1.09-3.92,5.26,5.26,0,0,1-.71-4.28c.2-.94,1.22-3.37,3-4.12s2.85,0,3,.24a1.38,1.38,0,0,0-1.43-.89,3.76,3.76,0,0,0-1.25.26"/></clipPath><clipPath id="clip-path-30"><path class="cls-1" d="M37.23,34.64a11,11,0,0,1,0-2.87s.3-3.4,1.14-3.4,1,2.56.68,4.32-.78,2.28-1,2.47a.57.57,0,0,1-.32.14h0c-.16,0-.31-.15-.45-.66m-.53-2.89A11.91,11.91,0,0,0,37,35.44a1.17,1.17,0,0,0,1.7.54,2.13,2.13,0,0,0,.31-.21h0a7,7,0,0,0,.39,1.76A4,4,0,0,0,40,38.61a3.12,3.12,0,0,0,1,.81,3.45,3.45,0,0,0,1.18.34,4.46,4.46,0,0,0,1.16,0,9.57,9.57,0,0,0,1.09-.23,7.18,7.18,0,0,0,1-.39c.67-.31,1.28-.7,1.9-1a5,5,0,0,1,.95-.41,1.39,1.39,0,0,1,.49-.07.9.9,0,0,1,.46.11.57.57,0,0,1,.27.37,1.26,1.26,0,0,1,0,.51,3.56,3.56,0,0,1-.38,1,3.3,3.3,0,0,0,.47-1,1.28,1.28,0,0,0,0-.55.66.66,0,0,0-.09-.28.73.73,0,0,0-.21-.22,1.1,1.1,0,0,0-.55-.19,2.09,2.09,0,0,0-.56,0,5.88,5.88,0,0,0-1.05.35c-.66.29-1.3.62-1.95.85a5.74,5.74,0,0,1-1,.28,8.89,8.89,0,0,1-1,.13,4.45,4.45,0,0,1-1,0,2.49,2.49,0,0,1-.84-.32,2.39,2.39,0,0,1-1-1.45,6.87,6.87,0,0,1-.21-1.95,23.31,23.31,0,0,1,.35-2.59c.39-2.13-.27-5.08-1.81-5.17h-.07c-1.64,0-2,4.27-2,4.27"/></clipPath></defs><g class="cls-2"><path class="cls-3" d="M24.21,17.91c3.11-1.63,4.9-1.31,4.9-1.31.15-.16.47-.46.47-.46a11.84,11.84,0,0,0-5.14,0,13.53,13.53,0,0,1-4.71.14c-4.4-.64-4.76-3.52-4.76-3.52-1.26,8.64,6.12,6.77,9.24,5.14"/></g><g class="cls-4"><rect class="cls-3" x="13.71" y="12.77" width="15.87" height="8.65"/></g><g class="cls-2"><path class="cls-3" d="M14,16.1s-1.18,5,2.94,5.55a12,12,0,0,0,8.67-2.19c1.24-1,1.91-1.55,2.35-1.9s.66-.58.86-.69h0a11.79,11.79,0,0,0-4.57,1.43c-2.93,1.49-9.29,3.18-10.18-2.21Z"/></g><g class="cls-5"><rect class="cls-3" x="12.8" y="16.08" width="16" height="6.13"/></g><g class="cls-2"><path class="cls-3" d="M23.15,12.77c.86,2.31,3.72,2.54,4.38,2.6a4.35,4.35,0,0,1,2.39.57,2.49,2.49,0,0,1,.7-.44,6.42,6.42,0,0,0-3.09-.76C25,14.55,21.88,12,23.68,8.9c0,0-1.5,1.23-.53,3.87"/></g><g class="cls-6"><rect class="cls-3" x="21.88" y="8.9" width="8.73" height="7.04"/></g><g class="cls-2"><path class="cls-3" d="M44.73,16.29A13.55,13.55,0,0,1,40,16.15a11.84,11.84,0,0,0-5.14,0l.48.46s1.78-.32,4.9,1.31,10.49,3.5,9.24-5.14c0,0-.37,2.88-4.77,3.52"/></g><g class="cls-7"><rect class="cls-3" x="34.88" y="12.77" width="15.87" height="8.65"/></g><g class="cls-2"><path class="cls-3" d="M40.25,18.29a11.84,11.84,0,0,0-4.57-1.43h0c.2.11.42.35.85.69s1.12.92,2.36,1.9a12,12,0,0,0,8.66,2.19c4.13-.57,2.94-5.55,2.94-5.55l0,0c-.89,5.39-7.26,3.7-10.18,2.21"/></g><g class="cls-8"><rect class="cls-3" x="35.67" y="16.08" width="16" height="6.13"/></g><g class="cls-2"><path class="cls-3" d="M32.14,19.3c1.27,1.51,1.56,1.93,1.53,3.68a10.64,10.64,0,0,0,1-4c.25.52.6,1.19,1.07,2.06,1.57,2.9,3.13,4.15,7.66,2.92a8.62,8.62,0,0,1-5.54-3c-1.7-1.84-2.69-2.95-3.38-3.62a3.56,3.56,0,0,0-.23-.62c1,.88,2.5,2.55,3.15,3.14,3.62,3.31,5.41,4,9.68,4.06s4.07-4.7,4.07-4.7a5.44,5.44,0,0,1-3,2.76,12.09,12.09,0,0,1-10-2.69,30.7,30.7,0,0,0-4.63-3.54,4.48,4.48,0,0,0-1.59-1s-1.17,3,.11,4.51"/></g><g class="cls-9"><rect class="cls-3" x="30.86" y="14.79" width="20.53" height="10.44"/></g><g class="cls-2"><path class="cls-3" d="M36.93,14.74a6.4,6.4,0,0,0-3.08.76,2.54,2.54,0,0,1,.69.44,4.36,4.36,0,0,1,2.4-.57c.65-.06,3.52-.29,4.37-2.6,1-2.64-.53-3.87-.53-3.87,1.8,3.06-1.31,5.65-3.85,5.84"/></g><g class="cls-10"><rect class="cls-3" x="33.85" y="8.9" width="8.73" height="7.04"/></g><g class="cls-2"><path class="cls-3" d="M30.39,13.09c.51-1.91,3.18-1.28,3.18-1.28s.66-.39.66-.39a7.6,7.6,0,0,0-1.39-.15c-2.56,0-2.45,1.82-2.45,1.82"/></g><g class="cls-11"><rect class="cls-3" x="30.28" y="11.18" width="3.96" height="1.91"/></g><g class="cls-2"><path class="cls-3" d="M34.17,12.47a1.23,1.23,0,0,0,1.14.44,1.66,1.66,0,0,0,1-.62c.19-.32.1-.43-.62-.46h-.09c-.71,0-1.56.42-1.41.65"/></g><g class="cls-12"><rect class="cls-3" x="34.02" y="11.82" width="2.46" height="1.17"/></g><g class="cls-2"><path class="cls-3" d="M17,24.78c-1.1.63-2,2.77-2.09,4.13s-.08,2.66,1.6,2.68q.33,0,.63,0c1.38,0,2.43,0,2.35,1.53a6.37,6.37,0,0,1-1.07,3.69c-.59.77-1.63,1.3-2.22,1a.62.62,0,0,1-.27-.3l0,0a2,2,0,0,1-.05-.26,1.27,1.27,0,0,1,0-.28c0-.2,0-.42,0-.63,0-.44.1-.88.15-1.33,0-.22,0-.45.05-.68a2.88,2.88,0,0,0,0-.71.72.72,0,0,0-.16-.39l-.1-.08-.06,0h-.06a.55.55,0,0,0-.22,0,1,1,0,0,0-.36.15,3,3,0,0,0-.27.23,4.34,4.34,0,0,0-.42.54,6.65,6.65,0,0,0-.33.58,4.17,4.17,0,0,1,.41-.53,3.34,3.34,0,0,1,.47-.45,1.06,1.06,0,0,1,.26-.17.56.56,0,0,1,.26-.08l.12,0a.12.12,0,0,1,0,.05.64.64,0,0,1,.06.24,2.63,2.63,0,0,1-.06.61c0,.22-.08.43-.13.64-.1.43-.22.86-.32,1.3a5.79,5.79,0,0,0-.12.6c-.15.79,0,2.29,1.27,2.64a3.56,3.56,0,0,0,3.81-1.93,8.13,8.13,0,0,0,.61-5.41c-.45-1-1.61-1.3-3.17-1.12s-2.25-.18-2.11-1.86S16.65,25.3,18,25.37s.95,2.1.4,3.72h2A4,4,0,0,0,20.27,26a2.47,2.47,0,0,0-2.19-1.56,2.22,2.22,0,0,0-1.1.3"/></g><g class="cls-13"><rect class="cls-3" x="14.03" y="24.48" width="7.14" height="15.29"/></g><g class="cls-2"><path class="cls-3" d="M22.68,34.64a11,11,0,0,1,0-2.87s.3-3.4,1.14-3.4,1,2.56.68,4.32-.77,2.28-1.05,2.47a.57.57,0,0,1-.31.14c-.16,0-.32-.15-.46-.66m-.53-2.89a12.24,12.24,0,0,0,.29,3.69,1.17,1.17,0,0,0,1.7.54c.54-.24,1.33-.92,1.82-3.11s-.2-5.39-1.84-5.39-2,4.27-2,4.27"/></g><g class="cls-14"><rect class="cls-3" x="22" y="27.48" width="4.45" height="8.82"/></g><g class="cls-2"><path class="cls-3" d="M27.73,27.57,27,36.14h.63L28,30.52s.17-1.89,1.28-2.27.71,1.56.56,2-1.51,4.43-.94,5.86h1.26a9.86,9.86,0,0,1,.36-3.22c.49-1.67,1-3.31.63-4.5s-2.27-1.23-3.06.63l.1-1.48Z"/></g><g class="cls-15"><rect class="cls-3" x="27.03" y="27.19" width="4.55" height="8.95"/></g><g class="cls-2"><path class="cls-3" d="M42.64,29.26l.1-1.68h-.52l-.63,8.56h.63l.38-6.22a6,6,0,0,1,1-1.35c.69-.61,1.2-.3,1.36.11.3.77,0,2.52-.78,2.73a.55.55,0,0,1-.77-.51c0,.84.41,1.09,1.21,1s1.51-1.38,1.63-1.87.37-2.26-1.18-2.47l-.24,0c-1.41,0-2.23,1.7-2.23,1.7"/></g><g class="cls-16"><rect class="cls-3" x="41.59" y="27.56" width="5.07" height="8.57"/></g><g class="cls-2"><path class="cls-3" d="M34.83,11.43a6.86,6.86,0,0,0-4.09,4.46,34.41,34.41,0,0,0-4.53,3.48,12.08,12.08,0,0,1-10,2.69,5.47,5.47,0,0,1-3-2.76S13.07,24,17.34,24s6.07-.75,9.69-4.06c.74-.69,2.67-2.82,3.56-3.48,0,.15-.07.31-.1.47A52.64,52.64,0,0,0,26.57,21,8.65,8.65,0,0,1,21,24c4.54,1.23,5.67-.17,7.24-3.06a18.09,18.09,0,0,1,2.16-3.44l0,.41c-.14,3.31,1.91,3.45,2,5.57a45.82,45.82,0,0,1-.1,4.9l-.63,7.76h.63l.35-5.62s.17-1.89,1.28-2.27.7,1.56.56,2-1.3,3.81-1,5.46l.1.55c0,.19.09.37.14.55l.09.27.05.14,0,.06,0,.07a4.46,4.46,0,0,0,.93,1.49,3,3,0,0,0,1,.65,2.93,2.93,0,0,0,1.12.21A4.34,4.34,0,0,0,38,39.6a6.68,6.68,0,0,0,1-.35,6.34,6.34,0,0,0,.93-.49,7.06,7.06,0,0,1-1,.33,6.13,6.13,0,0,1-1,.18,4.64,4.64,0,0,1-1,0,2.79,2.79,0,0,1-.88-.31,2.23,2.23,0,0,1-.65-.61,2.56,2.56,0,0,1-.4-.81,3.66,3.66,0,0,1-.13-.44v-.12l0-.12,0-.23c0-.15,0-.3,0-.45h0v-.37a10.49,10.49,0,0,1,.38-2.85c.49-1.67,1-3.31.63-4.5s-2.28-1.23-3.06.63l.08-1.28c.08-1.11.23-2.78.39-3.63a4.44,4.44,0,0,0-1.09-3.92,5.26,5.26,0,0,1-.71-4.28c.2-.94,1.22-3.37,3-4.12s2.85,0,3,.24a1.38,1.38,0,0,0-1.43-.89,3.76,3.76,0,0,0-1.25.26"/></g><g class="cls-17"><rect class="cls-3" x="13.07" y="11.08" width="26.91" height="28.66"/></g><g class="cls-2"><path class="cls-3" d="M37.23,34.64a11,11,0,0,1,0-2.87s.3-3.4,1.14-3.4,1,2.56.68,4.32-.78,2.28-1,2.47a.57.57,0,0,1-.32.14c-.16,0-.31-.15-.45-.66m-.53-2.89A11.91,11.91,0,0,0,37,35.44a1.17,1.17,0,0,0,1.7.54,2.13,2.13,0,0,0,.31-.21h0a7,7,0,0,0,.39,1.76A4,4,0,0,0,40,38.61a3.12,3.12,0,0,0,1,.81,3.45,3.45,0,0,0,1.18.34,4.46,4.46,0,0,0,1.16,0,9.57,9.57,0,0,0,1.09-.23,7.18,7.18,0,0,0,1-.39c.67-.31,1.28-.7,1.9-1a5,5,0,0,1,.95-.41,1.39,1.39,0,0,1,.49-.07.9.9,0,0,1,.46.11.57.57,0,0,1,.27.37,1.26,1.26,0,0,1,0,.51,3.56,3.56,0,0,1-.38,1,3.3,3.3,0,0,0,.47-1,1.28,1.28,0,0,0,0-.55.66.66,0,0,0-.09-.28.73.73,0,0,0-.21-.22,1.1,1.1,0,0,0-.55-.19,2.09,2.09,0,0,0-.56,0,5.88,5.88,0,0,0-1.05.35c-.66.29-1.3.62-1.95.85a5.74,5.74,0,0,1-1,.28,9,9,0,0,1-1,.13,4.52,4.52,0,0,1-1,0,2.49,2.49,0,0,1-.84-.32,2.39,2.39,0,0,1-1-1.45,6.87,6.87,0,0,1-.21-1.95,23.31,23.31,0,0,1,.35-2.59c.39-2.13-.27-5.08-1.81-5.17h-.07c-1.64,0-2,4.27-2,4.27"/></g><g class="cls-18"><rect class="cls-3" x="36.54" y="27.48" width="13.1" height="12.31"/></g></svg>