<svg xmlns="http://www.w3.org/2000/svg" width="650.865" height="314.359" viewBox="0 0 650.865 314.359"><defs><style>.a{fill:#ebf2f9;}.b{fill:#82b378;}.c{fill:#a8d29f;}.d{fill:#f1a34f;}.e{fill:#d16e24;}.f{fill:#e78b37;}.g{fill:#c44f00;opacity:0.4;}.h{fill:#df812f;}.i{fill:#b5453c;}.j{fill:#ffb27d;}.k{fill:#c65447;}.l{fill:#aa413e;}.m{fill:#699dee;}.n{fill:#4a75cb;}.o{fill:#e2915a;}.p{fill:#a1c7ff;}.q{fill:#ef9a60;}.r{fill:#233862;}.s{fill:#365da4;}.t{fill:#466aa5;}.u{fill:#2b478b;}.v{fill:#163560;}.w{fill:#b64c41;}.x{fill:#d6716b;}.y{fill:#b2cbfd;}.z{fill:#d2e9ff;}.aa{fill:#afcdfb;}.ab{fill:#283250;}</style></defs><g transform="translate(-274.233 -274.772)"><path class="a" d="M949.063,551.872c-9.845,22.514-29,32.45-47.321,36.527H363.669c-50.793-19.1-77.822-157.979-2.5-191.764,41.274-18.514,69.706-21.728,77.73-50.9,33.747-122.7,154.749-46.18,199.532-59.06C797.7,240.856,773.8,465.336,873.042,444.987,918.585,435.65,977.969,485.77,949.063,551.872Z" transform="translate(-31.59 0)"/><g transform="translate(307.803 383.002)"><g transform="translate(174.672 28.485)"><path class="b" d="M1748.866,1229.391s-17.693,13.157-21.142,12.359,12.93-14.2,12.93-14.2c-6.164-2.964-25.325-1.105-25.325-1.105s-6.382,20.581-9.53,18.959,6.581-17.936,6.581-17.936c-6.865-.414-15.285,4.683-15.285,4.683-11.527,9.1.757,23.435.757,23.435a35.034,35.034,0,0,1-9.645,13.537s-10.4,7.688-11.119,21.427l1.887.169s2.992-12.8,8.428-18.847c.212-.219.517-.532.894-.912h0c.889-.822,1.51-1.44,1.928-1.9,2.705-2.6,6.443-5.909,8.244-6.23a3.472,3.472,0,0,1-.077-.906c.025.29.05.589.077.906.617,7.244,14.669,13.57,23.314,14.87s5.973-2.253,2.994-7.522-12.405-7.627-14.556-10.053,2.3-2.432,7.5-.053,5.922,8.722,14.278,12.724,20.929-9.864,20.929-9.864c-6.659-.338-16.169-7.57-15.825-9.783s16.142,3.818,18.843,4.107,8.845-3.07,9.8-13.948S1748.866,1229.391,1748.866,1229.391Z" transform="translate(-1583.224 -1155.762)"/><g transform="translate(0 31.194)"><path class="c" d="M1312.9,1095.785s19.542-10.943,10.422-25.795c0,0-7.3-9.12-15.112-11.464,0,0,4.169,22.147,0,22.668s-2.866-25.013-2.866-25.013-20.584-9.9-28.661-9.119c0,0,12.767,21.626,8.6,21.1s-18.5-22.408-18.5-22.408-21.1-3.908-24.492,8.6,2.084,18.76,5.211,19.542,23.189.521,22.668,3.127-14.07,6.774-21.626,4.429c0,0,8.338,20.584,19.281,19.542s14.331-7.817,21.1-8.338,11.725,1.3,8.338,3.127-14.852.6-20.323,5.249-9.9,7.518.261,9.6,28.4.782,32.048-7.035Z" transform="translate(-1241.217 -1045.18)"/><path class="b" d="M1357.127,1162.48a41.569,41.569,0,0,1-5.211-19.02c-6.253-19.8-60.969-37.52-60.969-37.52,69.568,28.14,57.322,45.337,57.322,45.337,1.875,1.094,4.686,6.308,6.637,10.309.278.681.718,1.623,1.371,2.9h0c.265.578.477,1.052.623,1.382,3.582,8.963,1.685,24.439,1.685,24.439l2.171.583C1365.565,1175.294,1357.127,1162.48,1357.127,1162.48Z" transform="translate(-1280.237 -1092.855)"/></g><g transform="translate(85.833)"><path class="c" d="M1656.723,967.036s-25.759-14.425-13.738-34c0,0,9.617-12.021,19.921-15.112,0,0-5.5,29.194,0,29.881s3.778-32.972,3.778-32.972,27.133-13.051,37.78-12.021c0,0-16.829,28.507-11.334,27.82s24.385-29.537,24.385-29.537,27.82-5.152,32.285,11.334-2.748,24.729-6.869,25.76-30.568.687-29.881,4.121,18.547,8.93,28.507,5.839c0,0-10.991,27.133-25.416,25.759s-18.89-10.3-27.82-10.991-15.456,1.717-10.991,4.122,19.577.788,26.79,6.92,13.051,9.91-.344,12.657-37.437,1.03-42.246-9.273Z" transform="translate(-1639.788 -900.33)"/><path class="b" d="M1749.224,980.423s-72.126,23.355-80.369,49.458c0,0,.344,11.678-6.869,25.073,0,0-11.123,16.891-4.782,37.452l2.862-.769s-2.5-20.4,2.22-32.215c.193-.435.472-1.059.822-1.822.861-1.686,1.442-2.928,1.807-3.825,2.572-5.274,6.277-12.148,8.748-13.59C1673.663,1040.185,1657.521,1017.516,1749.224,980.423Z" transform="translate(-1651.92 -963.175)"/></g></g><path class="d" d="M1506.291,1178.427s42.632-12.178,53.341-.592c9.38,10.149,34.82,50.324,36.159,74.1,1.3,23.1-23.155,38.3-48.313,38.3H1502.8Z" transform="translate(-1271.792 -1085.666)"/><path class="e" d="M1382.008,1197.094s60.276-27.382,71.693-9.5c6.062,9.5,22.744,47.387,23.976,71.166,1.2,23.1-21.294,38.3-44.43,38.3h-41.09Z" transform="translate(-1177.016 -1092.492)"/><path class="f" d="M830.135,855.458s74.975-2.03,103.595-1.966c14.724.033,14.359,11.178,21.433,24.091,14.168,25.863,37.693,70.348,35.821,77.3-2.665,9.9-103.029,16.747-110.135,14.464S830.135,855.458,830.135,855.458Z" transform="translate(-743.991 -835.092)"/><path class="g" d="M1009.841,906.426s1.015-14.716-2.537-13.447-26.134,21.82-22.581,70.281l10.4,8.88,79.415-13.194Z" transform="translate(-864.991 -866.016)"/><path class="d" d="M1367.249,933.829,1340.5,947.043s-22.921-84.274-24.444-90.7a5.246,5.246,0,0,0-4.874-4.166c3.707-.337,6.4-.363,6.4-.363a17.024,17.024,0,0,1,16.124,11.557c5.107,15.069,14.513,42.856,24.04,71.159,2.492-1,5.457-2.141,8.731-3.319Z" transform="translate(-1121.444 -833.776)"/><path class="h" d="M1198.5,1243.815s86.441-7.655,97.1,2.552c4.948,4.738,7.726,26.2,9.283,47.828a46.532,46.532,0,0,1-46.823,49.684l-93.708.042Z" transform="translate(-1006.228 -1139.197)"/><g transform="translate(133.66 0)"><path class="i" d="M1077.029,768.382a12.372,12.372,0,0,0-6.779.731,3.131,3.131,0,0,1,1.155-1.054c-1.146.172-3.261,2.006-3.261,2.006-17.045-1.219-12.585,21.969-10.671,27.088s3.784,11.113-2.4,18.117c-12.169,13.781,5.379,25.993,5.379,25.993.139.034,10.54,9.562,10.54,9.562-1.672-4.1,10.986-32.286,19.1-42.049,1.36-4.392.276-11.085.187-11.611,1.129,5.225,1.13,8.348.843,10.2C1097.3,796.827,1083.59,769.851,1077.029,768.382Z" transform="translate(-1050.775 -768.059)"/><path class="j" d="M1476.222,925.972c.254-.381,2.41-6.977,4.694-6.851s5.836.507,6.724.254,3.866-2.5,4.377-1.966c1.269,1.332-1.586,5.455-3.615,6.089s-5.328-.317-6.089.444-.634,3.489-.634,3.489Z" transform="translate(-1384.601 -885.181)"/><g transform="translate(150.514 167.729)"><path class="j" d="M1751.181,1565.99c-.248,2.692,3.5,3.346,7.839,3.562s3.029,1.1,8.976,2.182,8.331-.55,8.762-1.354c.383-.713-2.382-1.828-5.329-3.088-.371-.157-.742-.32-1.114-.482-3.317-1.458-5.178-4.433-7.764-7.191-2.449-2.612-4.775-10.976-4.775-10.976l-8.083-1.726s2.269,7.528,3.057,10.741c.464,1.89-.22,4-.827,5.612A10.582,10.582,0,0,0,1751.181,1565.99Z" transform="translate(-1749.695 -1546.917)"/><path class="k" d="M1764.394,1629.137c4.34.216,3.029,1.1,8.976,2.182s8.331-.55,8.762-1.354c.383-.713-2.382-1.828-5.329-3.088l-.046.05a16.938,16.938,0,0,1-9.009.108c-3.935-1.068-7.739-3.42-10.45-4.179a10.573,10.573,0,0,0-.744,2.719C1756.306,1628.266,1760.054,1628.921,1764.394,1629.137Z" transform="translate(-1755.068 -1606.502)"/></g><path class="l" d="M1344.449,1168.355s53.709-4.042,63.82,2.339,26.328,80.712,26.328,80.712a6.594,6.594,0,0,1-3.236,1.044c-2.079.225-6.658-1-6.658-1s-23.306-33.258-24.947-41.637-1.241-15.855-4.979-16.055-50.336,5.665-57.384-6.752-1.221-24.709-1.221-24.709Z" transform="translate(-1272.936 -1077.399)"/><path class="m" d="M1283.4,956.246c-3.651,9.246-12.471,24.315-14.749,24.885-1.921.479-11.311-1.664-18.94-4.268-4.466-1.525-8.325-3.207-9.73-4.612-3.806-3.806-16.334-26.165-16.334-26.165s11.767-1.491,17.348,1.808,19.029,18.522,21.059,18.014,11.671-17.507,15.477-19.029c0,0,5.836-1.269,7.358,2.791C1285.275,950.69,1284.63,953.138,1283.4,956.246Z" transform="translate(-1186.42 -907.484)"/><g transform="translate(129.962 176.355)"><path class="j" d="M1655.749,1606.048c-.248,2.692,3.5,3.346,7.839,3.562s3.029,1.105,8.976,2.182,8.331-.55,8.762-1.354c.383-.713-2.382-1.828-5.329-3.088-.371-.157-.742-.32-1.113-.482-3.317-1.458-5.178-4.433-7.764-7.191-2.449-2.612-4.775-10.976-4.775-10.976l-8.083-1.726s2.27,7.528,3.057,10.741c.463,1.89-.22,4-.827,5.612A10.568,10.568,0,0,0,1655.749,1606.048Z" transform="translate(-1654.262 -1586.975)"/><path class="k" d="M1668.962,1669.195c4.34.216,3.029,1.105,8.976,2.182s8.331-.55,8.762-1.354c.383-.713-2.382-1.828-5.329-3.088l-.046.05a16.936,16.936,0,0,1-9.009.108c-3.934-1.068-7.739-3.42-10.449-4.179a10.568,10.568,0,0,0-.744,2.719C1660.874,1668.324,1664.622,1668.978,1668.962,1669.195Z" transform="translate(-1659.636 -1646.559)"/></g><path class="n" d="M1358.64,994.49c-3.651,9.246-12.471,24.315-14.749,24.885-1.921.479-11.311-1.664-18.94-4.268a37.465,37.465,0,0,1-5.414-5.5c.251.094,18.037,6.838,21.564,5.326C1344.3,1013.565,1353.345,998.126,1358.64,994.49Z" transform="translate(-1261.658 -945.728)"/><path class="j" d="M1168.8,914c.058.007-4.108,4.09-8.143,4.208-3.794.115-7.47-3.728-7.425-3.753,1.393-.748,1.2-2.917-1.508-11.667l.711-.073,11.958-1.21s.827,3.627,1.84,6.972C1167.078,911.282,1168.061,913.893,1168.8,914Z" transform="translate(-1129.98 -872.764)"/><path class="o" d="M1166.978,901.5s.827,3.627,1.84,6.972c-6.364,1.749-11.457-2.989-13.8-5.762Z" transform="translate(-1132.571 -872.764)"/><path class="k" d="M1278.666,1205.871s47.712,2.258,57.567,9.029,23.167,81.676,23.167,81.676a6.6,6.6,0,0,1-3.274.917c-2.086.144-6.614-1.255-6.614-1.255s-21.994-34.14-23.308-42.576-.623-15.891-4.35-16.237-50.518,3.7-57.078-8.981S1278.666,1205.871,1278.666,1205.871Z" transform="translate(-1217.673 -1111.587)"/><path class="i" d="M1117.973,808.662s-4.9-4.215-7.06-8.44c-1.541-3.016-3.527-15.336,8.874-17.261a16.879,16.879,0,0,1,7.467.486c3.111.954,7.983,3.579,6.971,15.167l-.017,3.815Z" transform="translate(-1097.063 -779.586)"/><path class="m" d="M1177.77,1007.055c-.419,0-1.007-.025-1.7-.079a61.262,61.262,0,0,1-8.789-1.274c-13.128-3.922-25.74-8.761-31.112-25.758a52.207,52.207,0,0,1-1.619-6.719l2.047-7.8,3.994-16.474s4.912,2.626,9.477,1.614c2.337-.52,3.669-3.245,3.669-3.245s24.708,9.672,33.081,29.716,11.247,17,13.785,21.313S1191.894,1006.971,1177.77,1007.055Z" transform="translate(-1116.511 -908.713)"/><path class="j" d="M1148.467,824.134s-14.854,4.805-17.7-4.491-6.687-14.937,2.676-18.4,12.3-.481,14.009,2.39S1152.257,822.645,1148.467,824.134Z" transform="translate(-1110.986 -792.875)"/><path class="i" d="M1129.629,792.49s-.756,12.158-6.536,15.687-9.015,2.679-9.015,2.679a18.576,18.576,0,0,0,2.606-12.269S1124.96,788.239,1129.629,792.49Z" transform="translate(-1100.446 -786.424)"/><path class="i" d="M1182.843,791.937s3.8,1.5,5.264,3.644,3.291,6.913,4.661,6.314c0,0,.815-8.356-3.927-11.494C1183.813,787.073,1182.843,791.937,1182.843,791.937Z" transform="translate(-1154.402 -784.676)"/><path class="n" d="M1181.729,1109.126a61.272,61.272,0,0,1-8.789-1.274c-13.128-3.922-25.74-8.761-31.112-25.758-.02-.125-.043-.249-.066-.376l1.822-1.433a13.022,13.022,0,0,1,13.115-1.758C1167.069,1082.906,1181.313,1090.845,1181.729,1109.126Z" transform="translate(-1122.168 -1010.862)"/><path class="m" d="M1084.865,954.9s-15.345,2.305-17.882,11.935-4.792,41.09-2.509,43.575,9.106-.4,10.628-1.64,9.388-33.237,9.388-33.237S1088.337,961.066,1084.865,954.9Z" transform="translate(-1060.782 -914.659)"/><path class="j" d="M1271.089,1155.294s8.827-1.708,9.823-1.281,6.549,5.41,5.979,6.406-2.847,1.708-5.41.854-8.115-1.282-9.111-2.563A8.363,8.363,0,0,1,1271.089,1155.294Z" transform="translate(-1223.644 -1070.843)"/><path class="m" d="M1113.089,1154.419s-34.452-.569-42.709,4.84c0,0-4.84,4.983-3.417,7.688s5.837,2.278,7.83,2.135,36.872-8.115,36.872-8.115S1115.652,1157.979,1113.089,1154.419Z" transform="translate(-1063.271 -1071.202)"/></g><path class="d" d="M1134.229,1178.427s39.205-12.178,49.053-.592c8.627,10.149,32.021,50.324,33.253,74.1,1.2,23.1-21.294,38.3-44.43,38.3h-41.09Z" transform="translate(-980.075 -1085.666)"/><path class="d" d="M819.6,1001.413c-1.232-23.779-17.913-61.668-23.976-71.166-8.844-13.855-47.005-.548-63.757,6.155-9.527-28.3-18.933-56.091-24.04-71.159a17.022,17.022,0,0,0-16.123-11.558s-27.242-4.024-31.457,32.269c-13.494,116.174-2.652,153.637,45.755,153.925,6.071.036,17.936-.071,28.077-.186l0,.017h41.09C798.31,1039.709,820.8,1024.517,819.6,1001.413Z" transform="translate(-606.487 -835.14)"/><path class="e" d="M819.606,999.972c-1.233-23.849-17.913-61.848-23.977-71.372-7.528-11.83-36.3-3.919-55.025,2.842-3.273,1.181-6.239,2.329-8.731,3.328-9.527-28.385-18.933-56.255-24.04-71.367a17.028,17.028,0,0,0-16.124-11.591s-2.7.025-6.4.364H685.3c-5.973.545-14.559,1.9-18.674,5.28-2.791,2.29-4.709,12.339-6.374,26.719-3.935,33.968-5.8,61.229-5.27,82.81a177.756,177.756,0,0,0,2.753,28.864,84.336,84.336,0,0,0,4.321,15.329c7.726,19.418,21.962,27.24,43.95,27.373,2.555.016,6.138.005,10.187-.02,5.569-.036,12.019-.1,17.89-.168l0,.018h41.091C798.311,1038.381,820.8,1023.143,819.606,999.972Z" transform="translate(-606.488 -833.776)"/><path class="d" d="M842.226,933.181c-6.183,2.429-13.035,5.119-18.581,7.3-5.42-19.944-21.4-78.808-22.661-84.138a5.242,5.242,0,0,0-4.873-4.165c3.706-.338,6.4-.364,6.4-.364a17.026,17.026,0,0,1,16.123,11.558C823.664,878.2,832.853,905.347,842.226,933.181Z" transform="translate(-717.293 -833.774)"/><path class="g" d="M723.5,1294.322c-2.9-8.682-20.95-5.97-20.95-5.97s-12.257,15.2-15.825,15.558,7.355-14.652,7.355-14.652c-6.909-.543-24.517,6.33-24.517,6.33s1.117,17.73-2.451,17.37,0-15.741,0-15.741c-6.686,1.629-12.927,7.962-12.927,7.962-7.8,10.311,8.916,17.91,8.916,17.91s.223,6.15-4.458,13.206c0,0-5.884,7.254-4,16.634h-5.179a16.6,16.6,0,0,0-3.161-11.872,18.642,18.642,0,0,1-3.38-10.02s12.679-5.764,6.762-13.587c0,0-4.734-4.806-9.806-6.039,0,0,2.7,11.664,0,11.94s-1.86-13.176-1.86-13.176-1.449-.566-3.583-1.312a176.786,176.786,0,0,0,2.753,28.78,6.561,6.561,0,0,0,3.367-2.489c.1-.18.2-.35.294-.515a2.043,2.043,0,0,1-.294.515c1.215.576,3.039,3.324,4.306,5.43.18.36.467.855.888,1.525.172.307.312.558.406.734,1.462,2.966,1.517,7.284,1.357,10.086h-18.8v.814h1.094c.4,10.811,8.754,20,20.47,23.837h-16.9c-2.233,0-4.042,1.469-4.042,3.281h66.392a2.719,2.719,0,0,0-.081-.66,3.928,3.928,0,0,0-3.958-2.621H674.8c11.717-3.841,20.067-13.026,20.47-23.837h.761v-.814h-34.9a15.076,15.076,0,0,1,2.946-3.867l.528-.437c.571-.429.969-.751,1.241-.992,1.756-1.37,4.186-3.119,5.356-3.286a1.5,1.5,0,0,1-.048-.48c.015.155.033.312.048.48.4,3.813,9.52,7.147,15.13,7.832s3.877-1.187,1.944-3.963-8.051-4.017-9.446-5.3,1.489-1.281,4.872-.028,3.841,4.595,9.264,6.7,13.582-5.194,13.582-5.194c-4.321-.18-10.491-3.988-10.268-5.153s10.474,2.01,12.227,2.162,5.739-1.616,6.356-7.348-10.953-7.327-10.953-7.327-2.669,1.611-5.684,3.233a18.006,18.006,0,0,0-2.689-2.093c.994-.715,1.89-1.33,2.446-1.708a26.6,26.6,0,0,0,3.684.541c9.36.723,16.492-13.569,16.492-13.569-6.462,1.629-18.053-1.266-18.5-3.075s16.715-1.629,19.389-2.172S726.4,1303.007,723.5,1294.322Zm-57.281,34.192a2.7,2.7,0,0,1-.388-.677C665.96,1328.054,666.09,1328.275,666.224,1328.514Zm-1.68,19.148a17.656,17.656,0,0,0-5.211,5.267h-2.215c-.274-3.593-.381-10,1.725-14.28.124-.231.3-.558.533-.961.279-.444.513-.83.708-1.165s.345-.614.464-.85c1.67-2.778,4.075-6.4,5.678-7.158a6.109,6.109,0,0,0,1.761,1.86c-3.045,4.605,2.816,10.156,2.816,10.156A18.686,18.686,0,0,1,664.544,1347.662Zm24.619-22.779c-4.793-1.073-10.573-.873-12.686-1.794-2.9-1.268,1.337-2.535,7.132-2.172,3.9.244,6.488,2.451,10.613,4.09C692.616,1324.893,690.843,1324.865,689.163,1324.883Z" transform="translate(-585.951 -1175.991)"/><g transform="translate(0 90.41)"><g transform="translate(60.912 45.493)"><path class="b" d="M762.077,1418.415s-7.972-9.3-.491-15.208c0,0,5.464-3.308,9.919-3.039,0,0-6.313,10.586-4.271,11.639s6.184-12.3,6.184-12.3,12.434-1.205,16.434.717c0,0-10.629,8.7-8.391,9.216s13.72-8.02,13.72-8.02,11.572,1.969,10.955,9.029-4.6,9.239-6.357,9.051-12-4.1-12.228-2.665,5.948,6.129,10.269,6.348c0,0-8.159,9-13.581,6.4s-5.885-6.713-9.265-8.257-6.265-1.54-4.87.035,7.513,3.1,9.446,6.524,3.667,5.725-1.943,4.881-14.729-4.949-15.129-9.65Z" transform="translate(-748.603 -1399.13)"/><path class="b" d="M764.813,1452.361s-31.431-1.211-38.373,7.778a22.733,22.733,0,0,1-6.259,8.784,19.737,19.737,0,0,0-7.215,13.9l1.224.11s1.941-8.3,5.469-12.23c.137-.142.337-.346.583-.594.572-.53.971-.926,1.242-1.223,1.756-1.688,4.187-3.841,5.357-4.05C726.84,1464.839,723.792,1453.7,764.813,1452.361Z" transform="translate(-712.966 -1440.855)"/></g><g transform="translate(0 20.242)"><path class="c" d="M476.632,1314.717s12.681-7.1,6.763-16.739c0,0-4.734-5.918-9.806-7.439,0,0,2.705,14.372,0,14.71s-1.86-16.231-1.86-16.231-13.357-6.425-18.6-5.918c0,0,8.285,14.033,5.58,13.7s-12-14.541-12-14.541-13.7-2.536-15.894,5.58,1.353,12.174,3.382,12.681,15.048.338,14.71,2.029-9.131,4.4-14.034,2.875c0,0,5.411,13.357,12.512,12.681s9.3-5.072,13.7-5.41,7.609.845,5.41,2.029-9.638.388-13.188,3.406-6.425,4.878.169,6.231,18.43.507,20.8-4.565Z" transform="translate(-430.118 -1281.879)"/><path class="b" d="M505.334,1358a26.976,26.976,0,0,1-3.381-12.343c-4.058-12.85-39.565-24.347-39.565-24.347,45.144,18.261,37.2,29.42,37.2,29.42,1.217.71,3.041,4.094,4.307,6.69.18.442.466,1.053.89,1.883h0c.172.375.309.682.4.9,2.324,5.816,1.093,15.859,1.093,15.859l1.409.378A23.418,23.418,0,0,0,505.334,1358Z" transform="translate(-455.439 -1312.816)"/></g><g transform="translate(55.699)"><path class="c" d="M699.75,1231.17s-16.716-9.361-8.915-22.065c0,0,6.24-7.8,12.927-9.807,0,0-3.566,18.945,0,19.391s2.452-21.4,2.452-21.4,17.607-8.469,24.517-7.8c0,0-10.921,18.5-7.355,18.053s15.824-19.167,15.824-19.167,18.053-3.343,20.951,7.355-1.783,16.047-4.458,16.716-19.836.446-19.39,2.674,12.035,5.795,18.5,3.789c0,0-7.132,17.607-16.493,16.716s-12.258-6.686-18.053-7.132-10.03,1.115-7.132,2.675,12.7.511,17.384,4.49,8.469,6.431-.223,8.214-24.294.669-27.414-6.018Z" transform="translate(-688.76 -1187.882)"/><path class="b" d="M759.776,1239.855s-46.8,15.156-52.153,32.095a35.556,35.556,0,0,1-4.458,16.27s-7.218,10.961-3.1,24.3l1.857-.5s-1.623-13.239,1.441-20.905c.125-.283.306-.688.533-1.182.559-1.094.935-1.9,1.173-2.482,1.669-3.423,4.074-7.883,5.677-8.819C710.743,1278.636,700.268,1263.926,759.776,1239.855Z" transform="translate(-696.633 -1228.663)"/></g><path class="m" d="M585.127,1559.6a32.744,32.744,0,0,0,65.487,0Z" transform="translate(-551.746 -1479.551)"/><path class="p" d="M640.468,1592.095a32.765,32.765,0,0,1-36.81-32.493h8.134A32.749,32.749,0,0,0,640.468,1592.095Z" transform="translate(-566.286 -1479.551)"/><path class="n" d="M645.379,1700.628H587.067a4.04,4.04,0,0,0-4.04,4.04h66.392A4.04,4.04,0,0,0,645.379,1700.628Z" transform="translate(-550.098 -1590.207)"/><rect class="n" width="67.309" height="1.004" transform="translate(32.305 80.051)"/></g></g><g transform="translate(675.783 353.343)"><path class="d" d="M2320.86,1227.617v31.444c0,5.525-1.561,9.994-3.49,9.994h-61.576c-1.93,0-3.49-4.469-3.49-9.994v-31.444c0-5.525,5.442-10.641,21.4-10.464l43.663.47C2319.3,1217.624,2320.86,1222.093,2320.86,1227.617Z" transform="translate(-2227.872 -1090.778)"/><path class="f" d="M2358.743,1226.972v31.444c0,5.525-1.561,9.994-3.49,9.994h-61.575c-1.93,0-3.49-4.469-3.49-9.994v-31.444c0-5.525,5.8-10.819,14.664-10.641l50.4.647C2357.183,1216.979,2358.743,1221.448,2358.743,1226.972Z" transform="translate(-2257.597 -1090.132)"/><path class="d" d="M2538.029,805.216c.839-1.854-.419-79.255,18.453-78.328s54.1,1.854,54.1,1.854,15.936,1.391,6.29,39.4-7.549,98.258-7.549,98.258h-69.617Z" transform="translate(-2452.066 -706.089)"/><path class="f" d="M2554.579,768.131c-1.164,4.54-2.128,9.392-2.98,14.415-3.405,20.346-4.455,43.529-4.71,60.356-.2,13.9.142,23.467.142,23.467h-69.606l-1.674-61.179c.823-1.844-.426-79.254,18.444-78.318,9.648.482,23.581.937,34.874,1.305,1.419.028,2.809.085,4.143.113,8.74.256,15.1.426,15.1.426S2564.226,730.107,2554.579,768.131Z" transform="translate(-2403.199 -706.076)"/><path class="e" d="M2544.688,1479.125V1438.3a3.21,3.21,0,0,0-3.178-3.178h-.029a2.952,2.952,0,0,0-1.561.454,3.128,3.128,0,0,0-1.617,2.724v40.883c-.123.02-.246.04-.369.063a23.688,23.688,0,0,0-19.069,16.884h45.6A23.743,23.743,0,0,0,2544.688,1479.125Z" transform="translate(-2437.03 -1261.807)"/><path class="g" d="M2585.333,775.748c-1.7-26.106-15.351-48.438-18.331-53.035l-29.908-2.958s-23.055,15.252-17.38,73.955c2.926,30.27,15.409,10.445,26.814-15.862l-2.339,57.007s27.836,1.9,36.491,2.469c.256-16.827,1.305-40.01,4.71-60.356C2585.389,776.571,2585.361,776.145,2585.333,775.748Z" transform="translate(-2436.989 -700.498)"/><path class="d" d="M2610.742,1437.227a3.128,3.128,0,0,0-1.617,2.724v50.027a3.06,3.06,0,0,0,1.617,2.724,3.161,3.161,0,0,0,1.589-2.724v-50.027A3.161,3.161,0,0,0,2610.742,1437.227Z" transform="translate(-2507.851 -1263.461)"/><path class="d" d="M2537.935,1640.015a23.688,23.688,0,0,0-19.069,16.884H2557A23.651,23.651,0,0,0,2537.935,1640.015Z" transform="translate(-2437.03 -1422.578)"/><path class="d" d="M2453.328,1378.26l-1.574,9.036c0,1.93.013,5.436-1.916,5.436h-108.4a3.488,3.488,0,0,1-3.49-3.49V1378.26a3.488,3.488,0,0,1,3.49-3.49h108.4A3.488,3.488,0,0,1,2453.328,1378.26Z" transform="translate(-2295.075 -1214.454)"/><g transform="translate(0)"><path class="q" d="M2169.718,1606.713a11.575,11.575,0,0,1,.34,2.98,2.2,2.2,0,0,1-1.05,1.333l-.51.965a14.365,14.365,0,0,1-3.519.624l-.028-.795a5.428,5.428,0,0,0-.681.029v-.029a19.984,19.984,0,0,0-7.463,1.39c-.028,0-.057.028-.085.028-.539.028-1.078.057-1.56.085h-7.321c-3.519-.511-4.909-1.929-5.164-2.639a17.129,17.129,0,0,1,4.824-2.128,1,1,0,0,1,.17-.028c.312-.114.908-.341,1.05-.369.4-.142.851-.255,1.249-.369,3.661-1.079,6.129-3.519,9.023-6.215,3.32-3.093,7.832-16.884,7.236-17.139l7.463.964s-5.987,11.975-5.5,15.692a28.308,28.308,0,0,0,1.191,4.455c.029.057.029.142.057.2a4.87,4.87,0,0,1,.2.6C2169.661,1606.486,2169.689,1606.6,2169.718,1606.713Z" transform="translate(-2141.852 -1378.97)"/><path class="r" d="M2327.378,1202.2l-32.1-1.312s-48.816,3.152-52.956,10.247l-18.409,86.1s1.02,1.375,4.477,1.967c1.829.313,5.809-.592,5.809-.592s23.839-30.484,26.9-49.623c2.561-15.995,3.574-17.666,12.343-17.333s35.676,2.451,48.46-.025S2327.378,1202.2,2327.378,1202.2Z" transform="translate(-2205.598 -1078.017)"/><g transform="translate(0 226.523)"><path class="s" d="M2167.2,1685.612a1.807,1.807,0,0,1-.142.794,2.2,2.2,0,0,1-1.05,1.333.587.587,0,0,1-.17.114h-.028c-.029.028-.057.028-.085.057-.937.568-2.185.568-3.774.624h-.681a19.978,19.978,0,0,0-7.463,1.39c-.028,0-.057.028-.085.028-.085.028-.142.057-.227.085h-12.4a3.508,3.508,0,0,1-2.213-2.157c-.142-.312.255-.653,1.022-1.022a.705.705,0,0,0,.2-.113c1.078-.482,2.7-.993,4.427-1.561.028.028.085.028.142.057a20.107,20.107,0,0,0,9.989.766c3.973-.766,7.917-2.639,10.953-3.547.256-.057.511-.142.766-.2.057-.028.114-.028.17-.057a1.844,1.844,0,0,1,.114.369A10.828,10.828,0,0,1,2167.2,1685.612Z" transform="translate(-2138.854 -1682.207)"/><path class="s" d="M2247.858,1706.453l-.17.312-.51.965-.709,1.333h-3.49v-.709l-.028-.766v-.341l4.71-.766Z" transform="translate(-2220.532 -1701.232)"/></g><path class="j" d="M2220.228,1606.713a11.564,11.564,0,0,1,.34,2.98,2.2,2.2,0,0,1-1.05,1.333l-.511.965a14.362,14.362,0,0,1-3.519.624l-.028-.795a5.43,5.43,0,0,0-.681.029v-.029a19.983,19.983,0,0,0-7.463,1.39c-.028,0-.057.028-.085.028-.539.028-1.078.057-1.561.085h-7.321c-3.519-.511-4.909-1.929-5.164-2.639a17.129,17.129,0,0,1,4.824-2.128,1.006,1.006,0,0,1,.17-.028c.312-.114.908-.341,1.05-.369.4-.142.852-.255,1.249-.369,3.66-1.079,6.129-3.519,9.023-6.215,3.32-3.093,7.832-16.884,7.236-17.139l7.463.964s-5.988,11.975-5.5,15.692a28.307,28.307,0,0,0,1.192,4.455c.029.057.029.142.057.2a4.83,4.83,0,0,1,.2.6C2220.171,1606.486,2220.2,1606.6,2220.228,1606.713Z" transform="translate(-2181.485 -1378.97)"/><path class="t" d="M2466.072,837.177l-2.5,9.915-13.117,51.83c-.5.781-4.677,2.433-9.3,3.983-5.5,1.839-11.647,3.573-12.809,3.471-2.128-.172-3.3-4.618-2.7-5.87.393-.827,7.406-4.549,12.892-7.885,3.062-1.861,5.643-3.6,6.357-4.633,1.288-1.918,4.494-19.566,7.106-32.481,1.333-6.625,2.522-12.01,3.211-13.421,1.747-3.684,8.549-4.68,10.391-4.87A4.132,4.132,0,0,1,2466.072,837.177Z" transform="translate(-2363.763 -792.633)"/><path class="u" d="M2371.893,1202.335l-32.1-1.312s-48.815,3.152-52.956,10.248l-17.012,87.8a25.612,25.612,0,0,0,4.833,1.153,10.729,10.729,0,0,0,5.01-.754s22.885-31.208,25.95-50.347c2.561-15.995,3.574-17.666,12.343-17.334s35.676,2.451,48.46-.025S2371.893,1202.335,2371.893,1202.335Z" transform="translate(-2241.623 -1078.124)"/><g transform="translate(10.878 226.523)"><path class="t" d="M2217.712,1685.612a1.807,1.807,0,0,1-.142.794,2.2,2.2,0,0,1-1.05,1.333.592.592,0,0,1-.17.114h-.029c-.028.028-.057.028-.085.057-.937.568-2.185.568-3.774.624h-.681a19.977,19.977,0,0,0-7.463,1.39c-.029,0-.057.028-.085.028-.085.028-.142.057-.227.085h-12.4a3.506,3.506,0,0,1-2.213-2.157c-.142-.312.255-.653,1.021-1.022a.707.707,0,0,0,.2-.113c1.078-.482,2.7-.993,4.427-1.561.029.028.085.028.142.057a20.105,20.105,0,0,0,9.988.766c3.973-.766,7.917-2.639,10.953-3.547.255-.057.511-.142.766-.2.057-.028.113-.028.17-.057a1.828,1.828,0,0,1,.114.369A10.811,10.811,0,0,1,2217.712,1685.612Z" transform="translate(-2189.364 -1682.207)"/><path class="t" d="M2298.368,1706.453l-.17.312-.511.965-.709,1.333h-3.49v-.709l-.028-.766v-.341l4.71-.766Z" transform="translate(-2271.042 -1701.232)"/></g><path class="v" d="M2616.574,660.943c15.393-1.17,18.4-32.762.09-28.914,0,0-2.567-1.677-3.835-1.694a3.427,3.427,0,0,1,1.409.972c-1.979-.442-5.047-1.159-7.463.211C2582.01,645.566,2610.608,661.4,2616.574,660.943Z" transform="translate(-2498.21 -630.335)"/><path class="j" d="M2607.825,797.038c-.062.017,5.063,3.829,9.458,3.36,4.134-.438,7.553-5.151,7.5-5.172-1.623-.6-1.732-2.987-.092-12.882l-.782.026-13.153.458s-.361,4.058-.964,7.837C2609.286,793.84,2608.606,796.818,2607.825,797.038Z" transform="translate(-2506.831 -749.609)"/><path class="u" d="M2511.124,882.5l-13.117,51.83c-.5.781-4.677,2.433-9.3,3.983a32.869,32.869,0,0,1-1.111-3.256,47.129,47.129,0,0,1-1.505-7.028c3.062-1.861,5.643-3.6,6.356-4.633,1.289-1.918,4.494-19.566,7.106-32.481a52.275,52.275,0,0,1,11.429-8.611Z" transform="translate(-2411.313 -828.046)"/><path class="q" d="M2617.926,782.925s-.36,4.058-.964,7.837c7.164.955,11.988-4.939,14.118-8.295Z" transform="translate(-2514 -749.705)"/><path class="v" d="M2616.946,676.354s4.694-5.3,6.41-10.2c1.225-3.5,1.555-17.161-12.185-17.413a18.484,18.484,0,0,0-8.03,1.634c-3.234,1.5-8.131,5.065-5.317,17.488l.583,4.137Z" transform="translate(-2498.325 -644.766)"/><path class="j" d="M2596.247,698.07s16.828,3.014,18.543-7.495,5.043-17.2-5.629-19.565-13.419,1.3-14.844,4.668S2591.914,697.015,2596.247,698.07Z" transform="translate(-2495.283 -661.659)"/><path class="v" d="M2632.165,661.126s2.621,13.08,9.415,16.052,10.177,1.572,10.177,1.572a20.339,20.339,0,0,1-4.644-12.926S2636.6,655.823,2632.165,661.126Z" transform="translate(-2525.929 -653.279)"/><path class="v" d="M2601.119,663.068s-3.9,2.194-5.171,4.734-2.547,7.988-4.122,7.541c0,0-2.122-8.945,2.558-13.052C2599.346,657.935,2601.119,663.068,2601.119,663.068Z" transform="translate(-2493.9 -654.033)"/><path class="t" d="M2576.726,932.792c-1.338,2.4-4.243,2.59-7.9,1.538a38.28,38.28,0,0,1-5.678-2.214,5.3,5.3,0,0,0-.584-.3c-5.914-2.885-12.511-7.231-17.666-10.539-10.807-6.927-11.522-3.047-14.726-6.872,0,0,3.292-3.462-.931-43.9-1.2-11.578,18.2-33.328,18.2-33.328s.13,7.179,15.637,1.069c.55-.2,4.789,8.94,8.49,19.975q.907,2.648,1.717,5.366c2.581,8.554,4.5,17.488,3.977,23.7a15.213,15.213,0,0,1-.781,3.927l-.138.323C2571.02,904.328,2580.548,925.88,2576.726,932.792Z" transform="translate(-2445.131 -792.633)"/><g transform="translate(49.407 84.331)"><path class="w" d="M2398.039,1039.073l-28.581-2.043,12.239,33.324,26.764,2.776Z" transform="translate(-2369.204 -1033.778)"/><path class="x" d="M2396.86,1040.748l-28.581-2.043,12.239,33.323,26.764,2.776Z" transform="translate(-2368.279 -1035.093)"/><path class="y" d="M2468.633,1029.525s.688-4.318-1.747-4.406-3.857,4.131-3.857,4.131Z" transform="translate(-2442.625 -1024.431)"/><path class="z" d="M2401.2,1030.934c.68,3.072,4.611,8.1,4.375,10.641l-18.267-.236s.118-1.182-3.784-9.577c-1.6-3.452.295-9.689,1.94-9.83l18.558.681S2399.871,1024.947,2401.2,1030.934Z" transform="translate(-2379.761 -1021.931)"/><path class="w" d="M2368.533,1037.029l-.254.361.63.04-.056-.223Z" transform="translate(-2368.279 -1033.778)"/><path class="w" d="M2548.56,1203.66l.254-.361-.482-.374Z" transform="translate(-2509.557 -1163.948)"/></g><path class="u" d="M2625.527,1025.854c-1.338,2.4-4.243,2.59-7.9,1.538a38.28,38.28,0,0,1-5.678-2.214,46.83,46.83,0,0,1-18.975-23.745c-9.592-26.478,27.294-45.652,27.294-45.652l1.813.869c2.581,8.554,4.5,17.488,3.977,23.7a15.213,15.213,0,0,1-.781,3.927l-.138.323C2619.821,997.39,2629.349,1018.943,2625.527,1025.854Z" transform="translate(-2493.932 -885.695)"/><g transform="translate(87.911 96.36)"><g transform="translate(0.088 0)"><rect class="e" width="1.419" height="19.154" transform="matrix(0.815, 0.579, -0.579, 0.815, 11.089, 0)"/></g><path class="d" d="M2547.162,1150.313l-.089,1.39,1.246-.569Z" transform="translate(-2547.073 -1134.695)"/></g><path class="j" d="M2561.434,1113.234s-5-2.078-7.541-1.494-7.7,2.281-7.473,3.676,5.756,3.014,8.351,2.078,4.087,1.025,7.154.526S2561.434,1113.234,2561.434,1113.234Z" transform="translate(-2458.644 -1007.987)"/><path class="t" d="M2622.409,842.162s15.752,2.675,17.714,6.826.658,47.658-.566,52.251-26.668,6.756-34.289,6.479c0,0-1.2-5.165.227-8.048s20.257-6,21.8-8.143-3.091-28.589-2.492-33.762S2622.409,842.162,2622.409,842.162Z" transform="translate(-2504.455 -796.545)"/><path class="j" d="M2397.572,1126.584s5.2-.5,4.5,1.627a6.056,6.056,0,0,1-2.669,3.161S2395.379,1128.474,2397.572,1126.584Z" transform="translate(-2341.343 -1019.675)"/></g><path class="d" d="M2586.038,1228.911v31.444c0,5.525-1.561,9.994-3.49,9.994h-61.576c-1.93,0-3.49-4.469-3.49-9.994v-31.444c0-5.525,4.91-11,21.758-9.994h43.308C2584.478,1218.917,2586.038,1223.386,2586.038,1228.911Z" transform="translate(-2435.944 -1092.071)"/><path class="h" d="M2623.921,1228.28v31.444c0,5.525-1.561,9.994-3.49,9.994h-61.576c-1.93,0-3.49-4.469-3.49-9.994V1228.28c0-5.525,5.265-10.464,17.679-9.994l43.983-.293C2623.943,1217.993,2623.921,1222.755,2623.921,1228.28Z" transform="translate(-2465.667 -1091.44)"/></g><g transform="translate(815.288 495.668)"><path class="n" d="M2870.171,1330.333h-80.058a3.472,3.472,0,0,0-3.462,3.462v1.241a3.472,3.472,0,0,0,3.462,3.462h36.923l2.071,63.379c-10.211.322-18.646,5.382-20.868,12.093h43.8c-2.2-6.659-10.524-11.689-20.626-12.082l1.836-63.39h36.917a3.472,3.472,0,0,0,3.462-3.462v-1.241A3.472,3.472,0,0,0,2870.171,1330.333Z" transform="translate(-2786.651 -1321.911)"/><g transform="translate(25.368)"><path class="m" d="M2917.542,1292.991a3.575,3.575,0,0,0-2.22-.041v-1.041a5.476,5.476,0,0,0-.044-.679H2904.5a5.383,5.383,0,0,0-.044.679v2.116a5.428,5.428,0,0,0,9.51,3.585h0s2.565-.631,3.371-1.588S2918.4,1293.52,2917.542,1292.991Zm-.569,1.956c-.272.7-1.5,1.082-2.1,1.229a5.38,5.38,0,0,0,.434-1.789,1.589,1.589,0,0,1,1.391-.73C2917.084,1293.728,2917.318,1294.057,2916.973,1294.948Z" transform="translate(-2904.451 -1291.229)"/><path class="aa" d="M2908.551,1291.907v2.117a5.452,5.452,0,0,0,5.434,5.436,4.982,4.982,0,0,0,.731-.053,5.45,5.45,0,0,1-4.7-5.383v-2.117a5.26,5.26,0,0,1,.044-.68h-1.461A5.349,5.349,0,0,0,2908.551,1291.907Z" transform="translate(-2907.668 -1291.227)"/><rect class="m" width="4.437" height="0.664" transform="translate(3.213 7.758)"/></g><g transform="translate(53.922)"><path class="m" d="M3050.131,1292.991a3.576,3.576,0,0,0-2.221-.041v-1.041a5.429,5.429,0,0,0-.044-.679h-10.782a5.429,5.429,0,0,0-.044.679v2.116a5.428,5.428,0,0,0,9.51,3.585h0s2.565-.631,3.371-1.588S3050.987,1293.52,3050.131,1292.991Zm-.569,1.956c-.272.7-1.5,1.082-2.1,1.229a5.374,5.374,0,0,0,.434-1.789,1.589,1.589,0,0,1,1.391-.73C3049.674,1293.728,3049.907,1294.057,3049.562,1294.948Z" transform="translate(-3037.04 -1291.229)"/><path class="aa" d="M3041.14,1291.907v2.117a5.452,5.452,0,0,0,5.434,5.436,4.978,4.978,0,0,0,.73-.053,5.451,5.451,0,0,1-4.7-5.383v-2.117a5.349,5.349,0,0,1,.044-.68h-1.461A5.349,5.349,0,0,0,3041.14,1291.907Z" transform="translate(-3040.257 -1291.227)"/><rect class="m" width="4.437" height="0.664" transform="translate(3.213 7.758)"/></g></g><rect class="ab" width="639.73" height="1.434" rx="0.717" transform="translate(274.233 587.697)"/></g></svg>