<svg xmlns="http://www.w3.org/2000/svg" width="608.751" height="422.04" viewBox="0 0 608.751 422.04"><defs><style>.a,.o{fill:gray;}.a{stroke:#ccc;stroke-miterlimit:10;stroke-width:0.25px;}.b{fill:#312f64;}.c{fill:#a3a3ef;}.d{fill:#f59d2f;}.e{fill:#d33b3f;}.f{fill:#585877;}.g{fill:#fc929a;}.h{fill:#cc7617;}.i{fill:#8484af;}.j{fill:#934c4f;}.k{fill:#bf844f;}.l{fill:#7b77fc;}.m{fill:#bf666a;}.n{fill:#f5c891;}.o,.p,.q{font-size:15px;}.o,.q{font-family:Lato-Regular, Lato;}.p{font-family:Lato-Medium, Lato;font-weight:500;}</style></defs><g transform="translate(-52.065 -118)"><line class="a" x2="558.086" transform="translate(89.314 166.555)"/><line class="a" x2="559.994" transform="translate(89.314 187.716)"/><line class="a" x2="559.994" transform="translate(89.314 208.622)"/><line class="a" x2="559.994" transform="translate(89.314 228.781)"/><line class="a" x2="559.994" transform="translate(89.314 248.94)"/><line class="a" x2="559.994" transform="translate(89.314 269.846)"/><line class="a" x2="559.994" transform="translate(89.314 290.752)"/><line class="a" x2="559.994" transform="translate(89.314 311.658)"/><line class="a" x2="559.994" transform="translate(89.314 332.564)"/><line class="a" x2="559.994" transform="translate(89.314 353.47)"/><line class="a" x2="559.994" transform="translate(89.314 374.376)"/><rect class="b" width="23.893" height="231.459" rx="6.259" transform="translate(122.167 166.691)"/><rect class="c" width="23.893" height="173.221" rx="6.259" transform="translate(243.123 224.929)"/><rect class="d" width="23.893" height="107.517" rx="6.259" transform="translate(283.442 290.634)"/><rect class="e" width="23.893" height="26.879" rx="6.259" transform="translate(323.76 371.271)"/><rect class="f" width="23.893" height="88.104" rx="6.259" transform="translate(359.599 310.046)"/><rect class="g" width="23.893" height="128.423" rx="6.259" transform="translate(398.425 269.728)"/><rect class="h" width="23.893" height="44.799" rx="6.259" transform="translate(437.25 353.352)"/><rect class="i" width="23.893" height="65.705" rx="6.259" transform="translate(476.076 332.446)"/><rect class="j" width="23.893" height="86.611" rx="6.259" transform="translate(511.914 311.54)"/><rect class="k" width="23.893" height="190.45" rx="6.259" transform="translate(551.993 207.701)"/><rect class="l" width="23.893" height="45.402" rx="6.259" transform="translate(592.072 352.748)"/><rect class="m" width="23.893" height="45.402" rx="6.259" transform="translate(201.311 352.748)"/><rect class="n" width="23.893" height="210.553" rx="6.259" transform="translate(162.485 187.597)"/><text class="o" transform="translate(56.099 169.243)"><tspan x="0" y="0">15%</tspan></text><text class="o" transform="translate(56.099 190.404)"><tspan x="0" y="0">13%</tspan></text><text class="o" transform="translate(56.099 211.31)"><tspan x="0" y="0">12%</tspan></text><text class="o" transform="translate(56.099 231.47)"><tspan x="0" y="0">11%</tspan></text><text class="o" transform="translate(56.099 251.628)"><tspan x="0" y="0">10%</tspan></text><text class="o" transform="translate(58.698 272.535)"><tspan x="0" y="0">9%</tspan></text><text class="o" transform="translate(58.698 293.441)"><tspan x="0" y="0">7%</tspan></text><text class="o" transform="translate(58.698 314.347)"><tspan x="0" y="0">6%</tspan></text><text class="o" transform="translate(58.698 335.253)"><tspan x="0" y="0">5%</tspan></text><text class="o" transform="translate(58.698 356.159)"><tspan x="0" y="0">3%</tspan></text><text class="o" transform="translate(58.698 377.065)"><tspan x="0" y="0">2%</tspan></text><text class="p" transform="translate(235.619 133)"><tspan x="0" y="0">Mapa dos problemas pós abuso</tspan></text><g transform="translate(52.065 424.512)"><rect class="b" width="11.451" height="11.451" transform="translate(0 4.384)"/><text class="q" transform="translate(20.517 15)"><tspan x="0" y="0">Depressão</tspan></text><rect class="n" width="11" height="12" transform="translate(109.25 4.199)"/><text class="q" transform="translate(129.302 15.194)"><tspan x="0" y="0">Ansiedade</tspan></text><rect class="m" width="11" height="12" transform="translate(214.25 4.199)"/><text class="q" transform="translate(234.271 15.194)"><tspan x="0" y="0">Agitação</tspan></text><rect class="c" width="11" height="12" transform="translate(309.25 4.199)"/><text class="q" transform="translate(329.697 15.194)"><tspan x="0" y="0">Agressividade</tspan></text><rect class="d" width="11" height="12" transform="translate(441.25 4.199)"/><text class="q" transform="translate(461.385 15.194)"><tspan x="0" y="0">Pensamentos suícidas</tspan></text><g transform="translate(0 32.445)"><rect class="e" width="11.451" height="11.451" transform="translate(0 4.384)"/><text class="q" transform="translate(20.517 15)"><tspan x="0" y="0">Tentativa de suicidio</tspan></text><rect class="f" width="11" height="11" transform="translate(170.25 4.755)"/><text class="q" transform="translate(190.375 15.194)"><tspan x="0" y="0">Humor instável</tspan></text><rect class="g" width="12" height="11" transform="translate(305.25 4.755)"/><text class="q" transform="translate(325.88 15.194)"><tspan x="0" y="0">Automotilação</tspan></text><rect class="h" width="11" height="11" transform="translate(433.25 4.755)"/><text class="q" transform="translate(453.751 15.194)"><tspan x="0" y="0">Perda ou ganho de peso</tspan></text></g></g><g transform="translate(71.776 485.778)"><rect class="i" width="11.451" height="11.451" transform="translate(0 4.384)"/><text class="q" transform="translate(20.517 15)"><tspan x="0" y="0">Fuga da realidade</tspan></text><rect class="j" width="11.451" height="11.451" transform="translate(150.773 4.384)"/><text class="q" transform="translate(171.29 15)"><tspan x="0" y="0">Retraimento ou impulsividade</tspan></text><rect class="k" width="11.451" height="11.451" transform="translate(381.704 4.384)"/><text class="q" transform="translate(402.221 15)"><tspan x="0" y="0">Baixo rendimento escolar</tspan></text></g><g transform="translate(275.262 522.04)"><rect class="l" width="11.451" height="11.451" transform="translate(0 4.384)"/><text class="q" transform="translate(20.517 15)"><tspan x="0" y="0">Outras comorbidades</tspan></text></g></g></svg>