<svg xmlns="http://www.w3.org/2000/svg" xmlns:xlink="http://www.w3.org/1999/xlink" width="470.956" height="382.567" viewBox="0 0 470.956 382.567"><defs><style>.a,.g{fill:none;}.b{fill:#d33b3f;}.c{clip-path:url(#a);}.d{fill:#f59d2f;}.e{fill:#6f6be3;}.f{fill:#312f64;}.g{stroke:#bec2c4;stroke-miterlimit:10;stroke-width:0.468px;}.h{fill:#f7f7f0;font-size:23px;font-family:Lato-Medium, Lato;font-weight:500;}.i,.j{fill:gray;font-family:Lato-Regular, Lato;}.i{font-size:11px;}.j{font-size:12px;}</style><clipPath id="a"><path class="a" d="M135.523,0A135.258,135.258,0,1,1,0,135.523,134.618,134.618,0,0,1,135.523,0Z" transform="translate(0 191.283) rotate(-45)"/></clipPath></defs><g transform="translate(-857.008 -110.135)"><path class="b" d="M135.523,0A135.258,135.258,0,1,1,0,135.523,134.618,134.618,0,0,1,135.523,0Z" transform="translate(857.008 301.419) rotate(-45)"/><g transform="translate(857.008 110.135)"><g class="c" transform="translate(0 0)"><path class="d" d="M988.309,295.521S994.7,127.675,1003.251,131.5s128.777,94.252,128.777,94.252l5.371,89.93Z" transform="translate(-791.098 -99.318)"/></g></g><g transform="translate(857.008 110.135)"><g class="c" transform="translate(0 0)"><path class="e" d="M988.309,240.252l140.754,93.661,20.87-93.661Z" transform="translate(-791.098 -44.049)"/></g></g><g transform="translate(857.008 110.135)"><g class="c" transform="translate(0 0)"><path class="f" d="M1038.124,240.252,889.072,343.907s172.541,62.2,176.347,59.655,113.458-77.968,113.458-77.968Z" transform="translate(-840.913 -44.049)"/></g></g><line class="g" x1="52.036" y1="65.303" transform="translate(957.184 165.676)"/><line class="g" y1="56.777" x2="47.964" transform="translate(1132.067 197.342)"/><line class="g" x2="45" y2="26.485" transform="translate(1152.937 336.262)"/><path class="g" d="M1006.482,296.849l63.686,45.085h28.9" transform="translate(75.033 95.228)"/><text class="h" transform="translate(977.851 275.897)"><tspan x="0" y="0">68%</tspan></text><text class="h" transform="translate(1081.516 275.897)"><tspan x="0" y="0">12%</tspan></text><text class="h" transform="translate(1100.29 329.075)"><tspan x="0" y="0">5%</tspan></text><text class="h" transform="translate(1040.962 376.588)"><tspan x="0" y="0">15%</tspan></text><text class="i" transform="translate(1187.221 195.801)"><tspan x="0" y="0">Boa evolução em alta</tspan></text><text class="j" transform="translate(1204.869 368.35)"><tspan x="0" y="0">Não se tem resultado</tspan></text><text class="j" transform="translate(954.79 156.792)"><tspan x="0" y="0">Boa evolução em andamento</tspan></text><text class="j" transform="translate(1181.964 441.041)"><tspan x="0" y="0">Abandonaram o tratamento</tspan></text></g></svg>