<svg xmlns="http://www.w3.org/2000/svg" width="29" height="18" viewBox="0 0 29 18"><defs><style>.a{fill:#7b77fc;}</style></defs><g transform="translate(29 26.264) rotate(180)"><path class="a" d="M31.836,8.264a6.561,6.561,0,0,0-6.692,6.48,6.665,6.665,0,0,0,6.81,6.48c.037,0,.094,0,.131-.005a8.82,8.82,0,0,1-5.368,1.806,1.653,1.653,0,0,0-1.688,1.62,1.527,1.527,0,0,0,1.537,1.62,11.664,11.664,0,0,0,11.882-11.52v0A6.491,6.491,0,0,0,31.836,8.264Z" transform="translate(-9.448)"/><path class="a" d="M6.815,8.264a6.565,6.565,0,0,0-6.7,6.48,6.663,6.663,0,0,0,6.808,6.48c.037,0,.093,0,.13-.005a8.822,8.822,0,0,1-5.369,1.806A1.654,1.654,0,0,0,0,24.644a1.535,1.535,0,0,0,1.546,1.62,11.673,11.673,0,0,0,11.891-11.52v0A6.5,6.5,0,0,0,6.815,8.264Z"/></g></svg>