<svg xmlns="http://www.w3.org/2000/svg" width="125.136" height="125.136" viewBox="0 0 125.136 125.136"><defs><style>.a{fill:#7b77fc;}</style></defs><g transform="translate(0)"><path class="a" d="M125.136,64.586V48.392a10.03,10.03,0,0,0-7.191-9.666l-12.992-3.9V31.762a14.113,14.113,0,0,0,6.055-11.577V14.128a14.128,14.128,0,1,0-28.257,0v6.055A14.107,14.107,0,0,0,88.806,31.76v3.066l-11.45,3.435a23.325,23.325,0,0,0-30.762-.353L36.33,34.828V31.762a14.113,14.113,0,0,0,6.055-11.577V14.128a14.128,14.128,0,0,0-28.257,0v6.055A14.107,14.107,0,0,0,20.183,31.76v3.066l-12.992,3.9A10.034,10.034,0,0,0,0,48.392V64.586H4.037V48.392a6.015,6.015,0,0,1,4.316-5.8l13-3.9a8.778,8.778,0,0,0,6.908,3.692,8.778,8.778,0,0,0,6.908-3.692l8.277,2.483A23.3,23.3,0,0,0,38.533,52.9a14.109,14.109,0,0,0-24.405,9.666v6.055A14.107,14.107,0,0,0,20.183,80.2v3.066l-12.992,3.9A10.034,10.034,0,0,0,0,96.831v18.213H24.22a2.022,2.022,0,0,1,2.018,2.018v8.073H98.9v-8.073a2.022,2.022,0,0,1,2.018-2.018h24.22V96.831a10.03,10.03,0,0,0-7.191-9.666l-12.992-3.9V80.2a14.113,14.113,0,0,0,6.055-11.577V62.57a14.116,14.116,0,0,0-24.22-9.87V50.787a10.853,10.853,0,0,0-5.546-9.472l8.73-2.62a8.311,8.311,0,0,0,13.817,0l13,3.9a6.015,6.015,0,0,1,4.314,5.8V64.586ZM28.257,4.037A10.1,10.1,0,0,1,38.348,14.128H29.092A4.906,4.906,0,0,1,25.647,12.7L24.22,11.274,22.793,12.7a4.906,4.906,0,0,1-3.445,1.427H18.165A10.1,10.1,0,0,1,28.257,4.037ZM18.165,20.183V18.165h1.183a8.839,8.839,0,0,0,4.872-1.447,8.839,8.839,0,0,0,4.872,1.447h9.256v2.018a10.092,10.092,0,0,1-20.183,0ZM28.257,38.348c-2.145,0-3.536-1.8-4.037-2.573V33.718a14.007,14.007,0,0,0,8.073,0v2.057c-.5.775-1.891,2.575-4.037,2.575ZM83.736,73.773a14.19,14.19,0,0,0,5.07,6.428v3.066l-12.99,3.9a9.91,9.91,0,0,0-1.25.476L72.66,87.2V83.225a16.231,16.231,0,0,0,4.9-6.62,10.051,10.051,0,0,0,6.175-2.832ZM62.568,86.788A16.036,16.036,0,0,0,68.623,85.6v2.2l-6.055,4.541L56.513,87.8V85.6a16.036,16.036,0,0,0,6.055,1.189Zm-8.534,4.2,4.921,3.692-5.062,3.037-1.28-6.4Zm6.3,15.987H64.8l1.57,14.128h-7.6Zm4.811-4.037H59.985l-1.159-3.476,3.742-2.244,3.74,2.244Zm1.032-8.259L71.1,90.984l1.421.327-1.28,6.4Zm15-24a6.053,6.053,0,0,1-2.55,1.631,16.367,16.367,0,0,0,.087-1.667V60.983A6.094,6.094,0,0,1,82.721,66a6.021,6.021,0,0,1-1.543,4.676Zm-6.5-.036a12.11,12.11,0,0,1-24.22,0V60.55H57.31a25.957,25.957,0,0,0,12.505-3.2l1.6,3.2h3.266Zm-28.17,1.667a5.967,5.967,0,0,1-.087-11.323v9.656a16.367,16.367,0,0,0,.087,1.667Zm1.067,4.3a16.2,16.2,0,0,0,4.9,6.62V87.2l-1.907.44a10.445,10.445,0,0,0-1.248-.476l-12.992-3.9V80.2a14.2,14.2,0,0,0,5.07-6.428,10.051,10.051,0,0,0,6.175,2.832ZM28.257,52.477A10.1,10.1,0,0,1,38.348,62.568H37.166a4.906,4.906,0,0,1-3.445-1.427l-1.427-1.427-1.427,1.427a4.906,4.906,0,0,1-3.445,1.427H18.165A10.1,10.1,0,0,1,28.257,52.477ZM18.165,68.623V66.6h9.256a8.839,8.839,0,0,0,4.872-1.447A8.839,8.839,0,0,0,37.166,66.6h1.183v2.018a10.092,10.092,0,1,1-20.183,0ZM28.257,82.751a14.043,14.043,0,0,0,4.037-.6v2.057c-.5.775-1.891,2.575-4.037,2.575s-3.536-1.8-4.037-2.573V82.158A14.111,14.111,0,0,0,28.257,82.751ZM24.22,111.008H16.147V96.88H12.11v14.128H4.037V96.831a6.015,6.015,0,0,1,4.316-5.8l13-3.9a8.778,8.778,0,0,0,6.908,3.692,8.778,8.778,0,0,0,6.908-3.692l7.653,2.3-5.629,1.3a14.066,14.066,0,0,0-10.951,13.767v2.477h4.037v-2.477A10.048,10.048,0,0,1,38.1,94.661l10.58-2.442,2.379,11.9,4.223-2.533,1.194,3.584L54.707,121.1H44.4V104.953H40.366V121.1H30.275v-4.037a6.063,6.063,0,0,0-6.055-6.055Zm92.564-19.975a6.015,6.015,0,0,1,4.316,5.8v14.177h-8.073V96.88H108.99v14.128h-8.073a6.063,6.063,0,0,0-6.055,6.055V121.1H84.77V104.953H80.733V121.1H70.43l-1.77-15.929,1.194-3.584,4.223,2.533,2.379-11.9,10.582,2.442a10.048,10.048,0,0,1,7.823,9.833v2.477H98.9v-2.477A14.066,14.066,0,0,0,87.947,90.728l-5.629-1.3,7.653-2.3a8.31,8.31,0,0,0,13.817,0Zm-15.868-6.818c-.5.773-1.891,2.573-4.037,2.573s-3.542-1.808-4.037-2.573V82.156a13.985,13.985,0,0,0,8.073,0Zm-4.037-5.5A10.1,10.1,0,0,1,86.788,68.623V66.6h1.183a8.839,8.839,0,0,0,4.872-1.447A8.839,8.839,0,0,0,97.715,66.6h9.256v2.018A10.1,10.1,0,0,1,96.88,78.715Zm0-26.238a10.1,10.1,0,0,1,10.092,10.092H97.715a4.906,4.906,0,0,1-3.445-1.427l-1.427-1.427-1.427,1.427a4.906,4.906,0,0,1-3.445,1.427H86.788A10.1,10.1,0,0,1,96.88,52.477ZM82.751,58.7a10.6,10.6,0,0,0-6.4-2.19H73.907l-2.483-4.965-1.9,1.267a21.943,21.943,0,0,1-12.212,3.7H48.787a10.6,10.6,0,0,0-6.4,2.19V55.718a19.389,19.389,0,0,1,33.1-13.71l2.142,2.142.452.152a6.828,6.828,0,0,1,4.674,6.485ZM96.88,4.037a10.1,10.1,0,0,1,10.092,10.092h-1.183a4.906,4.906,0,0,1-3.445-1.427l-1.427-1.427L99.489,12.7a4.906,4.906,0,0,1-3.445,1.427H86.788A10.1,10.1,0,0,1,96.88,4.037ZM86.788,20.183V18.165h9.256a8.839,8.839,0,0,0,4.872-1.447,8.839,8.839,0,0,0,4.872,1.447h1.183v2.018a10.092,10.092,0,1,1-20.183,0ZM96.88,38.348c-2.149,0-3.542-1.808-4.037-2.573V33.716a13.985,13.985,0,0,0,8.073,0v2.057c-.5.775-1.891,2.575-4.037,2.575Zm0,0" transform="translate(0 0)"/><path class="a" d="M184,0h4.037V4.037H184Zm0,0" transform="translate(-137.579)"/><path class="a" d="M184,32h4.037V54.2H184Zm0,0" transform="translate(-137.579 -23.927)"/><path class="a" d="M296,0h4.037V4.037H296Zm0,0" transform="translate(-221.322)"/><path class="a" d="M296,32h4.037V54.2H296Zm0,0" transform="translate(-221.322 -23.927)"/><path class="a" d="M216,32h4.037V46.128H216Zm0,0" transform="translate(-161.505 -23.927)"/><path class="a" d="M216,104h4.037v4.037H216Zm0,0" transform="translate(-161.505 -77.762)"/><path class="a" d="M264,32h4.037V46.128H264Zm0,0" transform="translate(-197.395 -23.927)"/><path class="a" d="M264,104h4.037v4.037H264Zm0,0" transform="translate(-197.395 -77.762)"/></g></svg>