<svg xmlns="http://www.w3.org/2000/svg" width="132" height="132" viewBox="0 0 132 132"><defs><style>.a{fill:#7b77fc;}</style></defs><g transform="translate(50.6)"><path class="a" d="M199.4,0a15.4,15.4,0,1,0,15.4,15.4A15.4,15.4,0,0,0,199.4,0Zm0,26.4a11,11,0,1,1,11-11A11,11,0,0,1,199.4,26.4Z" transform="translate(-184)"/></g><g transform="translate(39.6 33)"><path class="a" d="M177,120H163.8A19.822,19.822,0,0,0,144,139.8v37.4h8.8V219h4.4V168.4h-4.4v4.4h-4.4v-33a15.418,15.418,0,0,1,15.4-15.4H177a15.418,15.418,0,0,1,15.4,15.4v33H188v-4.4h-4.4V219H188V177.2h8.8V139.8A19.822,19.822,0,0,0,177,120Z" transform="translate(-144 -120)"/></g><g transform="translate(63.8 90.2)"><rect class="a" width="4" height="42" transform="translate(0.2 -0.2)"/></g><g transform="translate(96.8 22)"><path class="a" d="M365.2,80a13.2,13.2,0,1,0,13.2,13.2A13.2,13.2,0,0,0,365.2,80Zm0,22a8.8,8.8,0,1,1,8.8-8.8A8.8,8.8,0,0,1,365.2,102Z" transform="translate(-352 -80)"/></g><g transform="translate(96.8 50.6)"><path class="a" d="M371.8,184H352v4.4h19.8a11.013,11.013,0,0,1,11,11V228h-4.4v-4.4H374v41.8h4.4v-33h8.8v-33A15.418,15.418,0,0,0,371.8,184Z" transform="translate(-352 -184)"/></g><g transform="translate(88 90.2)"><path class="a" d="M328.8,328v4.4H320v4.4h8.8v33h4.4V328Z" transform="translate(-320 -328)"/></g><g transform="translate(107.8 99)"><rect class="a" width="4" height="33" transform="translate(0.2)"/></g><g transform="translate(8.8 22)"><path class="a" d="M45.2,80A13.2,13.2,0,1,0,58.4,93.2,13.2,13.2,0,0,0,45.2,80Zm0,22A8.8,8.8,0,1,1,54,93.2,8.8,8.8,0,0,1,45.2,102Z" transform="translate(-32 -80)"/></g><g transform="translate(0 50.6)"><path class="a" d="M15.4,184A15.418,15.418,0,0,0,0,199.4v33H8.8v33h4.4V223.6H8.8V228H4.4V199.4a11.013,11.013,0,0,1,11-11H35.2V184Z" transform="translate(0 -184)"/></g><g transform="translate(30.8 90.2)"><path class="a" d="M116.4,332.4V328H112v41.8h4.4v-33h8.8v-4.4Z" transform="translate(-112 -328)"/></g><g transform="translate(19.8 99)"><rect class="a" width="4" height="33" transform="translate(0.2)"/></g></svg>